
        <svg xmlns="http://www.w3.org/2000/svg" xmlns:xlink="http://www.w3.org/1999/xlink" version="1.1" width="2925.8635197399235" height="3158.1547848508067" viewBox="0 0 2925.8635197399235 3158.1547848508067">
			
			<g transform="scale(7.907739242540332) translate(10, 10)">
				<defs id="SvgjsDefs1013"/><g id="SvgjsG1014" featureKey="MI9fam-0" transform="matrix(3.313034755782125,0,0,3.313034755782125,-36.65923068916831,-106.017112185028)" fill="#fff"><g xmlns="http://www.w3.org/2000/svg" data-name="Layer 3"><path d="M92,43.09h0V36a4,4,0,0,0-4-4H40a4,4,0,0,0-4,4v7.09A6,6,0,0,0,36.67,55,28,28,0,0,0,54,75.15V78a3,3,0,0,0,3,3c-.17,7.46-1.45,10.24-7,13H49a3,3,0,0,0-3,3v2a1,1,0,0,0,1,1H81a1,1,0,0,0,1-1V97a3,3,0,0,0-3-3H78c-5.53-2.76-6.81-5.54-7-13a3,3,0,0,0,3-3V75.15A28,28,0,0,0,91.33,55,6,6,0,0,0,92,43.09ZM37,53a4,4,0,1,1,3.89-4.9,1.62,1.62,0,0,1,0,.19A4.17,4.17,0,0,1,41,49,4,4,0,0,1,37,53ZM79,96a1,1,0,0,1,1,1v1H48V97a1,1,0,0,1,1-1ZM72,78a1,1,0,0,1-1,1H57a1,1,0,0,1-1-1V77H72ZM60,49a4.17,4.17,0,0,1,.07-.71,1.16,1.16,0,0,1,0-.18,4,4,0,0,1,7.78,0,1.16,1.16,0,0,1,0,.18A4.17,4.17,0,0,1,68,49a4,4,0,0,1-8,0Zm25-1H69.91a6,6,0,0,0-11.82,0H42.93a6.69,6.69,0,0,0-.2-.77,6,6,0,0,0-3.61-3.84l-.08,0a6.78,6.78,0,0,0-.88-.25l-.16,0V36a2,2,0,0,1,2-2H88a2,2,0,0,1,2,2v7h.12A6.07,6.07,0,0,0,85,48Zm6,5a4,4,0,0,1-4-4,4.18,4.18,0,0,1,.07-.72,1.46,1.46,0,0,1,.05-.2h0A4,4,0,1,1,91,53Z"/><path d="M47.08,76a1,1,0,0,1-.54-.16,30.58,30.58,0,0,1-4-3.1,1,1,0,0,1,1.36-1.48,27.35,27.35,0,0,0,3.75,2.9A1,1,0,0,1,47.08,76Zm-6.79-6a1,1,0,0,1-.76-.35,31.44,31.44,0,0,1-6.45-12.4,1,1,0,1,1,1.94-.5,29.39,29.39,0,0,0,6,11.6A1,1,0,0,1,40.29,70Z"/></g></g><g id="SvgjsG1015" featureKey="EI8VXn-0" transform="matrix(2.9122980270607965,0,0,2.9122980270607965,-0.7571969385025007,232.06939798189896)" fill="#fff"><path d="M0.34 19.76 c0 -0.4 0.1 -0.28 0.26 -0.4 l1.5 0 c0.04 0 0.2 -0.16 0.2 -0.32 l0 -2.22 c0 -0.06 0.02 -0.14 0.02 -0.22 c0 0 -0.02 -0.16 -0.02 -0.18 c0 -0.34 0 -0.44 0.02 -0.54 c0 -1.86 -0.04 -6.22 -0.04 -10.12 c0 -0.14 -0.22 -0.14 -0.42 -0.28 c-0.06 0 -0.3 0.14 -0.44 0.14 l-0.92 0 c-0.08 -0.1 -0.24 -0.18 -0.24 -0.46 c0 -0.1 0.1 -0.28 0.78 -0.28 c0.8 0 2.28 0.06 2.62 0.06 c1.38 0 3.12 -0.04 3.84 -0.04 c2.12 0 2.7 0.44 3.18 0.54 l0.02 -0.02 c0.08 0 0.24 0.32 0.78 0.46 c0.14 0 0.7 0.64 0.76 0.66 c0 0.24 0.84 0.7 0.84 2.52 c0 0.86 -0.22 0.86 -0.24 1.16 l0 -0.02 c-0.04 0 -0.18 0.44 -0.28 0.44 c0 0 -0.18 0.46 -0.32 0.56 c-0.78 0.76 -0.6 0.4 -1.48 1.14 c-0.42 0 -0.28 0.36 -0.8 0.36 c-1.42 0.06 -1.02 0.3 -1.9 0.3 c-1 0.1 -1.34 0.18 -2.68 0.18 c0 0.02 -0.16 0.02 -0.16 0.42 l0.04 2.54 l-0.04 0.08 l0 0.3 c0 0.16 0 0.3 0.04 0.34 c0 0 -0.06 0.08 -0.06 1.22 c0 0.62 0.06 1.32 0.46 1.32 c0.22 0 0.36 -0.04 0.5 -0.04 c1.42 0 1.14 0.06 1.3 0.36 c-0.12 0.1 -0.04 0.26 -0.24 0.26 l-0.5 0 c-0.04 -0.14 -0.14 -0.14 -0.24 -0.2 c-0.04 0.02 -0.08 0.02 -0.08 0.06 l0.2 0.1 l-0.04 0.04 l-0.62 0 l-0.1 -0.04 c-0.06 0 -0.24 0.04 -0.32 0.04 l-2.28 0 c-0.04 0 -0.26 0.04 -0.32 0.04 c-0.32 0 -1.16 -0.02 -1.18 -0.08 l0 -0.02 c-0.06 0 -0.34 0.1 -0.8 0.1 c-0.54 0 -0.62 -0.12 -0.62 -0.2 c0 -0.04 0.02 -0.06 0.02 -0.06 z M1.5 19.84 c0.02 0.04 0.06 0.1 0.08 0.1 s0.06 -0.02 0.16 -0.06 c0 0 -0.08 -0.06 -0.12 -0.06 c-0.1 0 -0.08 0 -0.12 0.02 z M1.2 19.88 l0 -0.02 c-0.02 0 -0.02 0 -0.02 0.02 s0 0.04 0.02 0.04 l0 -0.04 z M2.1 19.88 c0 -0.02 -0.02 -0.02 -0.08 -0.02 c-0.04 0 -0.08 0 -0.08 0.02 s0.04 0.04 0.08 0.04 s0.08 -0.02 0.08 -0.04 z M3.24 19.84 c-0.02 0 -0.04 0.02 -0.04 0.04 s0.02 0.04 0.04 0.04 c0 0 0.02 -0.02 0.02 -0.04 s-0.02 -0.04 -0.02 -0.04 z M5.9 19.84 c-0.02 -0.02 -0.02 0.02 -0.02 0.04 c0 0 0.02 -0.02 0.02 -0.04 z M0.76 19.78 c-0.02 0 -0.04 0.02 -0.04 0.04 s0.02 0.02 0.04 0.02 s0.02 0 0.02 -0.02 s0 -0.04 -0.02 -0.04 z M0.72 19.76 c-0.02 0 -0.04 0.02 -0.04 0.04 c0 0 0.02 0.02 0.04 0.02 s0.02 -0.02 0.02 -0.02 c0 -0.02 0 -0.04 -0.02 -0.04 z M6.76 19.52 c0 0.1 0.1 0.18 0.24 0.24 c0.28 0 0.28 -0.08 0.32 -0.12 c-0.02 -0.16 -0.1 -0.16 -0.16 -0.16 c-0.02 0 -0.04 0.08 -0.06 0.12 c-0.2 0 -0.2 -0.12 -0.32 -0.12 c-0.02 0 -0.02 0.02 -0.02 0.04 z M0.84 19.52 c0 -0.02 0 -0.02 -0.02 -0.02 c0 0 -0.02 0 -0.02 0.02 s0.02 0.04 0.02 0.04 c0.02 0 0.02 -0.02 0.02 -0.04 z M2.68 19.48 c-0.02 0 -0.04 0.02 -0.04 0.04 s0.02 0.04 0.04 0.04 s0.02 -0.02 0.02 -0.04 s0 -0.04 -0.02 -0.04 z M2.56 19.44 c-0.02 0 -0.04 0.02 -0.04 0.04 l0.04 0 l0.02 0 c0 -0.02 0 -0.04 -0.02 -0.04 z M5.2 10.54 c0 1.32 -0.04 2.06 0.26 2.12 l0.78 0 c0.02 0 0.08 -0.02 0.12 -0.02 c0.64 -0.16 0.84 -0.08 1.3 -0.22 c0.9 0 0.94 -0.38 1.22 -0.46 c0.14 0 0.48 -0.58 0.58 -0.68 l-0.02 0 c0 -0.04 0.22 -0.26 0.22 -0.5 c0 -0.44 0.2 -0.24 0.2 -1.22 c0 -1.06 -0.16 -2.14 -0.16 -2.5 c0.02 -0.02 0.02 -0.04 0.02 -0.06 c0 -0.1 -0.24 -0.22 -0.24 -0.36 c0 -0.02 0.02 -0.04 0.02 -0.06 c0 -0.72 -1.74 -1 -2.02 -1 c-0.26 0 -0.62 0.02 -1.16 0.02 c-0.06 -0.04 -0.12 -0.04 -0.18 -0.04 c-0.2 0 -0.42 0.04 -0.62 0.04 l-0.08 0 c-0.08 0 -0.2 0.06 -0.24 0.46 l0 1.1 s-0.04 0.08 -0.04 0.1 c0.06 0.34 0.06 0.8 0.06 1.28 c0 0.28 -0.02 1.98 -0.02 2 z M2.46 11.86 c0 0.04 0 0.06 0.02 0.06 z M8.96 5.4399999999999995 c-0.02 0 -0.02 0.02 -0.02 0.04 s0 0.04 0.02 0.04 s0.02 -0.02 0.02 -0.04 s0 -0.04 -0.02 -0.04 z M1.18 5.359999999999999 c-0.04 0 -0.14 0.04 -0.14 0.08 l0.02 0 s0.06 0 0.06 0.02 c0.02 0 0.06 -0.02 0.06 -0.1 z M1.4 5.4 c-0.02 0 -0.02 0.02 -0.02 0.04 l0.04 0 c0 -0.02 -0.02 -0.04 -0.02 -0.04 z M1.86 5.4399999999999995 c0 -0.02 -0.04 -0.02 -0.06 -0.02 c-0.04 0 -0.06 0 -0.06 0.02 c-0.02 0 0.1 0 0.12 0 z M8.88 5.359999999999999 l0.02 0.08 s0.04 0 0.06 -0.08 l-0.08 0 z M8.84 5.279999999999999 c-0.02 0 -0.04 0.02 -0.04 0.04 s0.02 0.04 0.04 0.04 s0.02 -0.02 0.02 -0.04 s0 -0.04 -0.02 -0.04 z M0.6 5.08 c-0.08 0.06 -0.1 0.16 -0.12 0.2 c0.12 -0.06 0.12 -0.08 0.12 -0.2 z M1.12 5.140000000000001 c-0.04 0 -0.12 0.04 -0.12 0.08 c0 0.02 0.04 0.02 0.08 0.02 s0.08 0 0.1 -0.04 c0 -0.06 -0.04 -0.06 -0.06 -0.06 z M7.16 5.24 c0 -0.02 -0.02 -0.02 -0.04 -0.02 c-0.04 0 -0.06 0 -0.06 0.02 s0.02 0.02 0.06 0.02 c0.02 0 0.04 0 0.04 -0.02 z M2.18 5.16 l-0.04 0.04 l0.04 0 l0 -0.04 z M13.700000000000001 19.82 l0 -0.1 c0.04 -0.04 -0.02 -0.38 0.42 -0.38 c0.34 0 0.4 0.02 0.58 0.02 c0.4 0 0.7 -0.02 0.76 -0.12 l0 -1.7 c0 -0.04 -0.02 -0.18 -0.02 -0.2 l-0.02 0.02 c-0.04 -0.04 0.04 0.18 0.04 -0.54 c0 -1.5 -0.02 -2.06 -0.02 -2.56 c0 -0.32 0 -0.94 0.04 -1.46 c0 -0.04 -0.08 -0.3 -0.08 -0.8 c0 -0.24 0.06 -0.24 0.06 -0.36 c0 -0.32 -0.02 -0.62 -0.02 -0.86 c0 -0.42 0.02 -0.74 0.02 -1.2 c0 -0.12 0.3 -0.1 0.36 -0.16 c0 0 0 -0.1 -0.18 -0.1 c0 0 -0.06 0 -0.12 0.08 c-0.02 0 -0.04 -0.02 -0.06 -0.08 l0 -3.38 c0 -0.26 -0.06 -0.42 -0.32 -0.42 c-0.38 0 -0.46 0.06 -1.14 0.06 c-0.54 0 -0.22 -0.08 -0.52 -0.26 c0 -0.48 1.5 -0.34 1.92 -0.4 l-0.06 0 c0 0.02 1.16 0.08 1.16 0.08 c0.04 0 0.08 0.02 0.12 0.02 c0.24 0 0.34 -0.1 0.52 -0.1 c0.08 0 0.16 0.02 0.26 0.02 c0.06 0 0.22 -0.02 0.32 -0.02 c0.24 0 0.96 0.02 1.18 0.02 c0.16 0 0.28 -0.06 0.6 -0.06 c0.1 0 1.84 0.04 2.06 0.04 c0.4 0 1.06 0.2 1.6 0.2 c0.76 0.08 0.3 0.18 1.06 0.36 c-0.02 0 -0.04 -0.02 -0.04 -0.02 c0 0.02 0.56 0.32 0.56 0.38 c0.24 0.06 0.6 0.56 0.78 0.72 l-0.02 -0.02 s0.54 0.76 0.54 1.44 c0 0.74 0 0.78 -0.16 1.28 c0 0.34 -0.46 0.94 -1.26 1.62 c-0.1 -0.04 -0.22 0.34 -0.58 0.34 c0.06 -0.2 -0.1 0.26 -0.66 0.3 c-0.02 -0.02 -0.04 -0.02 -0.04 -0.02 c-0.1 0 -0.24 0.18 -0.32 0.18 c-0.76 0.2 -1.1 0.12 -1.1 0.42 c0 0 -0.04 0.16 0.12 0.16 c0.22 -0.04 0.58 0.32 0.7 0.32 c0.42 0 0.5 0.38 0.84 0.38 c0.36 0.16 0.5 0.28 0.94 0.74 c0.44 1.3 0.78 0.6 0.78 1.58 c0 0.54 0.18 0.92 0.18 1.46 c0 0.08 -0.04 0.42 -0.04 1.12 c0.04 0.26 0.06 0.78 0.14 0.86 l0 -0.04 c0 0.02 -0.06 0.66 0.64 0.66 c0.48 0 0.7 -0.06 0.84 -0.06 c0 0 0.02 0.02 0.04 0.02 c0.04 0 0.14 -0.04 0.22 -0.04 s0.16 0.02 0.2 0.1 l-0.14 0 c0 0.1 0.06 0.1 0.06 0.14 c0.04 -0.02 0.06 -0.06 0.08 -0.06 l0.02 0 l0 0.26 c-0.06 0 -0.06 -0.06 -0.06 -0.14 c-0.04 0.02 -0.06 0.02 -0.16 0.06 c0 0.04 0.02 0.08 0.16 0.14 c-0.08 0.04 -0.1 0.14 -0.2 0.14 l0 -0.02 s-0.1 0.2 -0.7 0.2 c-0.22 0 -1.58 -0.08 -1.94 -0.1 c0 0.02 0 0.02 -0.02 0.02 c-0.16 0 -0.54 -0.4 -0.86 -0.4 l0.02 0 c0 -0.08 -0.9 -0.5 -0.92 -0.88 l0.02 0.02 c0 -0.02 -0.2 -0.2 -0.2 -0.26 c0 -0.04 0.02 -0.16 0.02 -0.28 c0 -0.06 -0.06 -0.06 -0.16 -0.1 c-0.14 -3.26 -0.44 -4.16 -0.74 -4.6 c-0.06 0.22 0.08 -0.24 -0.38 -0.46 c0 -0.14 -0.62 -0.36 -0.6 -0.44 c-0.04 0 -0.08 0.02 -0.1 0.02 c-0.42 0 -0.4 -0.4 -1.08 -0.4 l-1.08 0 c-0.22 0.46 -0.22 1.04 -0.22 1.32 c0 0.06 0 0.52 0.04 0.56 c0 0.02 -0.02 0.08 -0.06 0.28 c0 0.06 0.04 0.3 0.04 0.46 l0 -0.02 c0 0.12 -0.02 0.56 -0.02 0.7 c0 0.26 0.02 0.32 0.02 0.5 l0 2.32 c0 0.04 0.04 0.16 0.04 0.2 c0 0.06 -0.04 0.18 -0.04 0.26 c0 0.26 0.04 0.3 0.04 0.4 c-0.02 0.02 -0.04 0.02 -0.04 0.04 c0 0.06 0.28 0.1 0.82 0.1 c0.02 0 0.42 -0.04 0.44 -0.04 c0.56 0 0.56 0.04 0.68 0.2 c0 0.36 -0.08 0.42 -0.14 0.42 c-0.02 0 -0.04 -0.02 -0.08 -0.1 c-0.1 0 -0.12 0 -0.12 0.02 c0.16 0.18 -1.94 0.18 -2.16 0.18 l0.04 0 s-0.68 -0.02 -0.94 -0.08 c-0.8 0.08 -2.18 0 -2.74 0.2 c-0.24 0 -0.46 0 -0.46 -0.32 z M26.04 19.94 c-0.02 0 -0.04 0.02 -0.04 0.04 s0.02 0.04 0.04 0.04 c0 0 0.02 -0.02 0.02 -0.04 s-0.02 -0.04 -0.02 -0.04 z M26.580000000000002 19.76 c-0.14 0 -0.1 0.08 -0.16 0.18 c0 0 0.02 0.02 0.04 0.02 c0.06 0 0.12 -0.1 0.12 -0.2 z M14.740000000000002 19.88 c-0.04 0 -0.1 0 -0.14 0.02 c0.04 0 0.1 0 0.14 -0.02 z M14.780000000000001 19.88 l0 0.02 l0.04 0 z M15.5 19.9 l-0.02 -0.02 c-0.02 0 -0.02 0.02 -0.02 0.02 c0 0.02 0 0.04 0.02 0.04 c0 0 0.02 -0.02 0.02 -0.04 z M15.88 19.86 c-0.02 0.02 -0.04 0.02 -0.04 0.04 c0.02 0 0.06 0 0.08 -0.02 z M18.98 19.82 l0 0.06 l0.12 0 c-0.04 -0.04 -0.06 -0.06 -0.12 -0.06 z M19.76 19.86 c-0.02 0 -0.04 0.02 -0.04 0.02 s0.02 0.02 0.04 0.02 s0.02 -0.02 0.02 -0.02 s0 -0.02 -0.02 -0.02 z M26.660000000000004 19.7 c-0.02 0.06 0.08 0.16 0.08 0.18 c0.1 0 0.1 0 0.16 -0.02 c-0.06 -0.18 0 -0.22 -0.16 -0.3 c-0.06 0.04 -0.08 0.02 -0.08 0.14 z M18.700000000000003 19.82 l-0.04 0.04 l0.04 0 l0 -0.04 z M20.04 19.46 c0 0.18 0.12 0.18 0.12 0.32 l0.04 0 l0 -0.22 c-0.02 -0.04 -0.06 -0.08 -0.16 -0.1 z M14.040000000000001 19.5 l0 0.06 c0 -0.02 0.02 0.18 0.14 0.18 c0.02 0 0.06 -0.04 0.1 -0.08 c-0.02 0.02 -0.16 -0.16 -0.22 -0.16 l-0.02 0 z M14.38 19.7 c0 -0.02 -0.02 -0.02 -0.02 -0.02 c-0.02 0 -0.02 0 -0.02 0.02 c0 0 0 0.02 0.02 0.02 z M18.740000000000002 19.66 c-0.02 0 -0.02 0.02 -0.02 0.02 c0 0.02 0 0.02 0.02 0.02 s0.02 0 0.02 -0.02 c0 0 0 -0.02 -0.02 -0.02 z M19.36 19.6 l0 0.1 c0.04 -0.02 0.08 -0.04 0.1 -0.08 c-0.04 -0.02 -0.06 -0.02 -0.1 -0.02 z M14.040000000000001 19.36 c-0.02 0 -0.02 0.02 -0.02 0.04 s0 0.04 0.02 0.04 s0.02 -0.02 0.02 -0.04 s0 -0.04 -0.02 -0.04 z M23.26 18.84 c0.02 0.04 0.04 0.1 0.04 0.1 c0.02 0 0.02 0 0.02 -0.02 l0 -0.08 l-0.06 0 z M17.68 18.3 l0.08 0.04 c0.04 -0.02 0.04 -0.06 0.04 -0.1 c-0.06 0 -0.08 0.02 -0.12 0.06 z M22.42 17.5 c0.02 0 0.02 0.02 0.02 0.04 c0 0 0 0.02 -0.02 0.02 s-0.02 -0.02 -0.02 -0.02 c0 -0.02 0 -0.04 0.02 -0.04 z M22.660000000000004 17.48 c0.02 0.02 0.04 0.02 0.08 0.02 c-0.04 -0.02 -0.06 -0.02 -0.08 -0.02 z M15.72 15.4 c-0.02 0 -0.04 0.02 -0.04 0.04 s0.02 0.04 0.04 0.04 s0.02 -0.02 0.02 -0.04 s0 -0.04 -0.02 -0.04 z M15.56 14.879999999999999 c-0.02 0 -0.04 0.02 -0.04 0.04 s0.02 0.04 0.04 0.04 s0.02 -0.02 0.02 -0.04 s0 -0.04 -0.02 -0.04 z M22.240000000000002 12.48 c-0.02 0 -0.04 0.02 -0.04 0.02 c0 0.02 0.02 0.04 0.04 0.04 c0 0 0.02 -0.02 0.02 -0.04 z M17.46 12.14 l0 0.08 l0.02 0.02 c0.06 0 0.14 -0.08 0.14 -0.1 l-0.16 0 z M17.5 11.94 c0 0.02 -0.02 0.02 -0.02 0.02 c0 0.02 0.02 0.02 0.08 0.02 c0 0 0.02 0 0.06 -0.02 c-0.02 -0.06 0 -0.08 -0.06 -0.16 c-0.02 0 -0.08 0.12 -0.06 0.14 z M18.34 10.22 l0 1.02 c0 0.34 0.2 0.4 0.38 0.5 c3.18 -0.08 3.18 -0.52 3.48 -0.82 c-0.02 0 -0.02 -0.02 -0.02 -0.02 c0 -0.1 0.3 -0.3 0.3 -0.44 l-0.02 0 c0 -0.08 0.42 -0.74 0.42 -1.6 c0 -2.04 -0.56 -2.42 -0.64 -2.84 c0 -0.02 -0.6 -0.54 -1.3 -0.54 c-0.44 0 -0.54 0.04 -0.7 0.04 l-1.5 0 c-0.42 0 -0.26 0.2 -0.38 0.42 l0 1.58 l0.04 0.1 c0 0.78 -0.08 1.5 -0.08 2.2 c0 0.04 0 0.1 0.06 0.16 c0 0.04 -0.04 0.1 -0.04 0.24 z M15.72 9.78 c-0.02 0 -0.04 0.02 -0.04 0.02 l0.04 0 l0.02 0 s0 -0.02 -0.02 -0.02 z M15.66 9.68 c-0.02 0 -0.02 0.02 -0.02 0.04 c0 0 0 0.02 0.02 0.02 l0.02 -0.02 c0 -0.02 -0.02 -0.04 -0.02 -0.04 z M15.72 9.58 c-0.02 0 -0.04 0.02 -0.04 0.04 c0 0 0.02 0.02 0.04 0.02 s0.02 -0.02 0.02 -0.02 c0 -0.02 0 -0.04 -0.02 -0.04 z M15.56 8.42 l0 0.1 l0.04 0 c0 -0.04 0 -0.08 -0.04 -0.1 z M24.580000000000002 6.1 c0.02 0.04 0.08 0.04 0.1 0.04 l0 -0.12 c-0.06 0 -0.1 0 -0.1 0.08 z M23.060000000000002 5.42 c-0.02 0 -0.04 0.02 -0.04 0.04 s0.02 0.02 0.04 0.02 s0.02 0 0.02 -0.02 s0 -0.04 -0.02 -0.04 z M14.780000000000001 5.279999999999999 c0.04 0.02 0.08 0.02 0.12 0.02 l-0.08 -0.06 z M16.720000000000002 5.279999999999999 l0 -0.02 c-0.02 0 -0.02 0 -0.02 0.02 s0 0.02 0.02 0.02 l0 -0.02 z M21.4 5.24 l0.08 0.04 c0.1 0 0.1 -0.04 0.1 -0.14 c0 -0.02 -0.02 -0.02 -0.1 -0.02 c-0.04 0 -0.08 0 -0.08 0.12 z M19.36 5.119999999999999 c0 0.04 -0.02 0.12 0.04 0.12 c0.02 -0.02 0.04 -0.08 0.06 -0.12 l-0.1 0 z M22.160000000000004 5.199999999999999 c-0.02 0 -0.04 0.02 -0.04 0.02 c0 0.02 0.02 0.02 0.04 0.02 s0.02 0 0.02 -0.02 c0 0 0 -0.02 -0.02 -0.02 z M15.080000000000002 5.119999999999999 l0 0.04 c0 -0.02 0.06 0.04 0.1 -0.04 l-0.1 0 z M20.240000000000002 5.119999999999999 c-0.04 0 -0.06 0.02 -0.08 0.04 l0.08 0 l0 -0.04 z M13.700000000000001 5.119999999999999 l0.02 0 l0.48 0 l-0.5 0 z M28.5 20.08 c-0.22 0 -0.22 0.02 -0.36 0.02 c-0.04 0 -0.22 -0.16 -0.28 -0.22 c0 0 0.04 -0.3 0.04 -0.36 c0.72 -0.06 1.24 -0.08 1.8 -0.14 c0.06 0 0 -0.38 0.22 -0.38 l0 -0.32 c0.02 0.02 0.04 0.02 0.04 0.02 c0.12 0 0.1 -0.56 0.26 -0.6 c0 -0.04 0.08 -0.72 0.28 -0.88 l0.1 -0.38 s0.68 -2.32 0.94 -2.32 c0.02 0 0.06 0.02 0.08 0.02 c0.1 0 0.12 -0.04 0.12 -0.08 c0 -0.18 -0.16 -0.1 -0.16 -0.24 c0 -0.36 0.36 -1.04 0.4 -1.08 c0.02 -0.82 0.32 -0.62 0.32 -1.14 l0 0.02 c0.02 0 0.18 -0.5 0.26 -0.56 c0 0.04 0.02 0.04 0.02 0.04 s-0.02 0 -0.02 -0.02 c0 -0.12 0.4 -0.94 0.4 -1.16 c0.1 0 0.12 -0.02 0.12 -0.06 s-0.02 -0.08 -0.02 -0.14 c0 -0.12 0.04 -0.24 0.18 -0.4 l0 0.02 c0.04 0 0.02 -0.44 0.18 -0.44 l0.08 -0.38 l0.12 -0.1 l0 -0.32 l0.16 -0.12 l0 -0.34 s0.12 -0.04 0.12 -0.08 c-0.02 0 -0.04 -0.04 -0.04 -0.06 c0 -0.26 0.5 -1.02 0.5 -1.54 l0.1 -0.08 l0 -0.32 c0 0.02 0.02 0.02 0.02 0.02 c0.28 0 -0.1 -1.16 0.94 -1.16 c0.08 0 0.44 0.22 0.44 0.52 c0.08 0.08 -0.08 0.28 0.28 0.94 c0.02 0 0.5 1.3 0.5 1.64 c0.18 0 0.06 0.4 0.52 1.36 c0.12 0.54 0.34 0.52 0.34 0.76 l0 -0.02 s0.1 0.64 0.18 0.64 l-0.02 0 c0 0.08 0.48 0.6 0.48 1.22 c0.12 0.58 0.32 0.34 0.32 0.84 l-0.02 -0.02 c0 0.04 0.32 0.46 0.32 0.72 c-0.02 0 -0.04 0 -0.04 0.02 c0 0.08 0.22 0.36 0.22 0.46 c0 0.02 -0.02 0.02 -0.02 0.04 c0 0.04 0.2 0.2 0.2 0.56 c0.08 0.7 0.42 0.74 0.42 1.18 c-0.02 0.04 -0.04 0.06 -0.04 0.08 c0 0.1 0.32 0.1 0.32 0.56 c0 1.14 0.78 1.4 0.78 2.2 c0.08 0.64 0.46 0.86 0.52 0.9 l1.3 0 c0.08 0 0.2 0.06 0.26 0.1 l0 0.36 c-0.08 0.04 -0.14 0.12 -0.46 0.12 c-0.04 0 -1 -0.04 -1.4 -0.04 c-0.18 0 -0.34 0.04 -0.5 0.04 c-0.02 0 -0.34 -0.04 -0.38 -0.04 c-1.08 0 -1.76 0.06 -2.18 0.06 c-0.02 0 -0.02 -0.06 -0.34 -0.06 c-0.16 0 -0.2 0 -0.28 0.04 c-0.1 0 -0.18 -0.04 -0.22 -0.1 c-0.04 0 -0.12 0.02 -0.12 0.02 l0.04 0.04 l-0.04 0.04 c-0.66 0 -0.72 0 -0.86 -0.12 l0.04 -0.34 c0 -0.04 0.14 -0.12 0.22 -0.12 l1.5 0 c0.02 0.02 0.16 -0.1 0.16 -0.2 c0 -0.04 -0.32 -0.46 -0.32 -0.7 c0.04 -0.02 0.04 -0.02 0.04 -0.06 c0 -0.1 -0.34 -0.36 -0.34 -0.88 c0.02 0 0.02 0 0.02 -0.02 c0 -0.04 -0.22 -0.2 -0.22 -0.36 c0 -0.72 -0.32 -0.72 -0.32 -1.26 l0 0.02 c-0.04 0 -0.22 -0.5 -0.4 -0.5 c-1.34 0 -2.76 0.04 -4.38 0.04 c0 0.08 -0.16 0.12 -0.16 0.34 c-0.3 0.66 -0.34 0.56 -0.34 0.88 c-0.24 0.16 0.02 0.28 -0.26 0.62 c-0.16 1.1 -0.38 0.48 -0.38 1.22 l0 -0.02 c-0.04 0 -0.22 0.52 -0.24 0.52 c0 0.32 0.08 0.32 0.2 0.4 l1.6 0 c0.1 0 0.3 0.02 0.3 0.26 s-0.06 0.36 -0.42 0.36 c-0.06 0 -0.14 -0.04 -0.24 -0.04 c-0.22 0 -0.3 0.04 -0.4 0.04 c-0.04 0 -0.14 -0.04 -0.16 -0.04 l-1.42 0 c-0.04 0.04 -0.08 0.04 -0.12 0.04 c-0.06 0 -0.16 -0.02 -0.24 -0.08 c0 0 0.04 -0.04 0.04 -0.08 l-0.06 0 c-0.04 0 -0.06 0 -0.06 0.04 l0.02 0.04 c-0.02 0.08 -0.04 0.08 -0.16 0.08 c0 -0.26 0 -0.2 0.06 -0.28 c-0.02 -0.08 0.02 -0.18 -0.04 -0.22 c0 0.14 -0.06 0.24 -0.18 0.32 c0 0.04 0.06 0.08 0.1 0.1 c-0.08 0 -0.3 0.1 -0.34 0.16 c-0.36 0 -0.32 -0.08 -0.54 -0.08 z M28.34 19.92 l0 0.04 l0.1 0 c-0.06 -0.04 -0.08 -0.04 -0.1 -0.04 z M28.680000000000003 19.96 c0 -0.02 -0.02 -0.02 -0.04 -0.02 s-0.04 0 -0.04 0.02 s0.02 0.04 0.04 0.04 s0.04 -0.02 0.04 -0.04 z M28.8 19.92 c-0.02 0 -0.04 0.02 -0.04 0.04 s0.02 0.04 0.04 0.04 s0.02 -0.02 0.02 -0.04 s0 -0.04 -0.02 -0.04 z M29.240000000000002 19.88 c-0.12 0 -0.28 0.04 -0.32 0.08 c0.34 0 0.24 -0.02 0.32 -0.08 z M29.900000000000002 19.9 c0 0.02 0.16 0.04 0.18 0.06 l0.04 -0.04 c-0.1 -0.02 -0.2 -0.02 -0.22 -0.02 z M31.380000000000003 19.92 c0.26 0 0.66 0.04 0.76 0.04 c-0.22 0 -0.22 -0.22 -0.24 -0.32 c0.02 0 -0.16 0.04 -0.16 0.16 c-0.04 0 -0.02 -0.12 -0.18 -0.12 c0 0.14 -0.08 0.18 -0.18 0.24 z M32.300000000000004 19.92 l0.04 0.04 c0.02 0 0.14 -0.04 0.18 -0.04 l-0.22 0 z M29.540000000000003 19.9 c-0.02 0 -0.04 0.02 -0.04 0.04 c0 0 0.02 0.02 0.04 0.02 s0.02 -0.02 0.02 -0.02 c0 -0.02 0 -0.04 -0.02 -0.04 z M31.12 19.92 c0 0 -0.04 -0.02 -0.06 -0.02 c-0.04 0 -0.04 0.02 -0.04 0.02 c0 0.02 0 0.04 0.04 0.04 c0.02 0 0.06 -0.02 0.06 -0.04 z M36.04 19.88 c0.02 0.02 0.08 0.04 0.1 0.04 s0.12 -0.02 0.16 -0.04 l0 -0.24 s-0.04 -0.02 -0.06 -0.02 c-0.18 0 -0.2 0.04 -0.2 0.12 l0 0.14 z M41.46 19.9 c0.06 0 0.08 0.02 0.18 0.02 c0.02 0 0.12 -0.02 0.18 -0.02 l-0.36 0 z M42.42 19.9 l0 0.02 l0.02 -0.02 l-0.02 0 z M36.6 19.88 l-0.04 0.02 l0.06 0.02 z M38.1 19.88 c-0.02 0 -0.04 0.02 -0.04 0.02 s0.02 0.02 0.04 0.02 s0.02 -0.02 0.02 -0.02 s0 -0.02 -0.02 -0.02 z M40.84 19.88 c0.02 0.02 0.04 0.02 0.1 0.02 l0.38 0 c-0.02 -0.02 -0.06 -0.04 -0.1 -0.06 c-0.04 0.04 -0.1 0.04 -0.12 0.04 c-0.18 0 -0.14 -0.14 -0.18 -0.14 z M28.020000000000003 19.74 c0 0.12 0 0.1 0.04 0.14 l0.26 0 l0 -0.34 c-0.28 0.14 -0.3 0.08 -0.3 0.2 z M32.24 19.78 l0 0.1 c0.04 0 0.06 -0.04 0.06 -0.04 c-0.02 -0.12 -0.08 -0.12 -0.08 -0.22 c-0.08 0 -0.12 0.04 -0.12 0.06 c0.02 0.04 0.04 0.1 0.14 0.1 z M42.02 19.84 c-0.02 0 -0.02 0.02 -0.02 0.04 s0 0.02 0.02 0.02 s0.02 0 0.02 -0.02 s0 -0.04 -0.02 -0.04 z M28.560000000000002 19.62 c0 0.16 -0.02 0.2 -0.06 0.22 c0.12 0 0.22 0 0.22 -0.12 s-0.02 -0.1 -0.16 -0.1 z M30.68 19.8 l0 0.04 l0.04 0 z M31.040000000000003 19.72 l0.04 0.02 l0 -0.06 z M32.34 19.58 c0 0.02 0 0.06 0.02 0.06 c0 0 0.08 0 0.08 -0.06 c0 -0.04 -0.04 -0.04 -0.08 -0.06 c-0.02 0.02 -0.02 0.04 -0.02 0.06 z M41.480000000000004 19.62 c0 0.02 0.04 0.02 0.06 0.02 c0 -0.1 0 -0.1 -0.04 -0.12 c0 0 -0.02 0.06 -0.02 0.1 z M42.36 19.48 c-0.1 0.02 -0.08 0.06 -0.08 0.16 l0.16 -0.1 c0 -0.02 -0.06 -0.04 -0.08 -0.06 z M40.84 19.54 c-0.02 0 -0.04 0.02 -0.04 0.02 c0 0.02 0.02 0.02 0.04 0.02 s0.02 0 0.02 -0.02 c0 0 0 -0.02 -0.02 -0.02 z M29.860000000000003 19.48 l0 0.06 l0.04 -0.06 l-0.04 0 z M29.92 19.18 c0 0.02 0.02 0.3 0.2 0.3 c-0.04 -0.02 -0.1 -0.2 -0.1 -0.3 l0.04 -0.12 l-0.04 -0.04 c-0.08 0 -0.1 0.12 -0.1 0.16 z M30.66 18.24 c-0.06 0.04 -0.14 0.16 -0.14 0.32 c0.02 0.02 0.04 0.02 0.04 0.02 c0.08 0 0.1 -0.12 0.12 -0.18 c0 -0.02 -0.02 -0.18 -0.02 -0.16 z M30.560000000000002 17.72 c0 -0.02 -0.02 -0.02 -0.02 -0.02 c-0.02 0 -0.02 0 -0.02 0.02 s0 0.02 0.02 0.02 c0 0 0.02 0 0.02 -0.02 z M31.12 16.28 c-0.02 0 -0.04 0.02 -0.04 0.02 s0.02 0.02 0.04 0.02 l0.02 -0.02 z M36.8 16 c-0.02 0 -0.02 0.02 -0.02 0.04 s0 0.04 0.02 0.04 s0.02 -0.02 0.02 -0.04 s0 -0.04 -0.02 -0.04 z M31.3 15.84 c-0.02 0 -0.02 0.02 -0.02 0.04 s0 0.04 0.02 0.04 s0.02 -0.02 0.02 -0.04 s0 -0.04 -0.02 -0.04 z M31.3 15.42 c-0.02 0 -0.02 0.02 -0.02 0.02 c0 0.02 0 0.02 0.02 0.02 s0.02 0 0.02 -0.02 c0 0 0 -0.02 -0.02 -0.02 z M32.22 14.6 c0.06 0.24 0.08 0.26 0.22 0.34 c0.24 0 0.9 -0.04 2.72 -0.04 c0.16 0 0.24 0.06 0.64 0.06 c0.2 0 0.4 -0.06 0.4 -0.28 c0 -0.1 -0.26 -0.48 -0.26 -0.68 l0.02 0 c0 -0.04 -0.22 -0.22 -0.22 -0.44 c0 -0.74 -0.38 -0.66 -0.38 -1.12 c0.02 0.02 0.02 0.04 0.02 0.04 c-0.02 0 -0.38 -0.66 -0.38 -1.04 c0 -0.26 -0.36 -0.64 -0.36 -1.08 l0.02 0 c0 -0.04 -0.22 -0.24 -0.22 -0.48 c-0.18 -0.42 -0.2 -0.38 -0.36 -0.38 c-0.58 1.38 -0.54 1.4 -0.72 1.74 c0 -0.04 -0.02 0.64 -0.28 0.74 l0 -0.04 c-0.02 0 -0.22 1.14 -0.42 1.32 c0 0.26 -0.44 0.6 -0.44 1.34 z M31.82 14.04 c-0.02 0 -0.04 0.02 -0.04 0.04 s0.02 0.04 0.04 0.04 s0.02 -0.02 0.02 -0.04 s0 -0.04 -0.02 -0.04 z M32.28 12.719999999999999 c-0.02 0 -0.04 0.02 -0.04 0.04 c0 0 0.02 0.02 0.04 0.02 l0 -0.06 z M33.120000000000005 11.54 l0 0.02 l0.02 0 z M33.04 11.22 c-0.02 0 -0.04 0.02 -0.04 0.04 l0.04 0 l0.02 0 c0 -0.02 0 -0.04 -0.02 -0.04 z M33.120000000000005 10.7 c-0.02 0 -0.04 0.02 -0.04 0.02 c0 0.02 0.02 0.04 0.04 0.04 c0 0 0.02 -0.02 0.02 -0.04 z M33.660000000000004 9.34 c0 -0.02 -0.02 -0.02 -0.02 -0.02 c-0.02 0 -0.02 0 -0.02 0.02 s0 0.04 0.02 0.04 c0 0 0.02 -0.02 0.02 -0.04 z M33.72 9.28 l-0.02 0 c0 0.02 0.02 0.02 0.02 0.02 s0.02 0 0.02 -0.02 l-0.02 0 z M35.900000000000006 7.880000000000001 c-0.02 0 -0.02 0.02 -0.02 0.04 s0 0.04 0.02 0.04 s0.02 -0.02 0.02 -0.04 s0 -0.04 -0.02 -0.04 z M35.52 5.1 c0 0 -0.02 0.02 -0.02 0.04 l0.04 0 c0 -0.02 0 -0.04 -0.02 -0.04 z M35 5.0600000000000005 c-0.02 0 -0.02 0.02 -0.02 0.04 s0 0.04 0.02 0.04 s0.02 -0.02 0.02 -0.04 s0 -0.04 -0.02 -0.04 z M35.160000000000004 5.0600000000000005 l0.08 0.04 c0.16 0 0.1 0 0.16 -0.04 l-0.06 -0.08 c-0.08 0 -0.12 0.08 -0.18 0.08 z M40.9 13.3 c0 -2.52 0.22 -2.4 0.48 -3.58 l0 0.02 c0.02 0 0.1 -0.6 0.36 -0.8 c-0.02 0 -0.02 -0.02 -0.02 -0.02 c0 -0.12 0.32 -0.42 0.32 -0.68 c0.56 -0.68 0.32 -0.62 0.82 -1.12 c-0.02 0 -0.02 -0.02 -0.02 -0.04 c0 -0.06 0.76 -0.7 0.88 -0.88 c0 0.02 0.02 0.02 0.02 0.02 c0.1 0 0.48 -0.44 0.62 -0.52 c0.18 0 0.2 -0.38 0.66 -0.38 c0.1 0 0.64 -0.46 0.86 -0.46 c0.66 -0.1 -0.2 -0.36 2.42 -0.36 c1.02 0 1.86 0.5 1.96 0.5 c0.02 0 0.02 -0.02 0.02 -0.02 c0 0.3 0.84 0.44 0.86 0.5 c0.98 0 0.18 -0.56 1.4 -0.56 c0.1 0 0.26 0.06 0.26 0.3 c0 1.32 0.1 1.94 0.1 2.38 c0 0.02 -0.02 0.08 -0.04 0.16 c0 0.02 0.04 0.2 0.04 0.26 c0 1.1 -0.1 0.98 -0.18 1.24 l-0.4 0 l-0.12 -0.12 s-0.16 -0.32 -0.24 -0.44 c-0.04 -0.14 -0.44 -0.64 -0.44 -0.7 c0 -0.38 -0.34 -0.26 -0.34 -0.7 c-0.54 -0.54 -0.42 -0.66 -0.78 -0.86 c-0.04 0 -0.2 -0.32 -0.3 -0.32 c-0.18 -0.06 -0.58 -0.54 -0.74 -0.54 c0.02 0.02 0.02 0.02 0.02 0.04 c-0.06 0 -0.62 -0.44 -1.26 -0.44 c-0.14 0 -0.1 0.14 -0.2 0.14 c-0.38 0 -0.3 0 -0.54 -0.14 c-0.92 0 -1.12 0.42 -1.3 0.42 c-0.3 0 -0.54 0.44 -0.74 0.56 c-0.26 0.96 -0.56 0.36 -0.56 1.1 c0 0.6 -0.24 0.84 -0.26 0.86 l0 0.44 l-0.04 0.04 c0 0.32 -0.14 1.74 -0.14 2.22 l-0.02 0.08 c0 0.22 -0.08 1.34 -0.08 1.54 c0 0.08 0 0.62 0.04 0.74 l0 0.08 c0 1.44 0.06 1.78 0.12 2.86 c0 -0.02 0 0.64 0.16 0.9 c0.06 0.54 0.32 0.72 0.32 1.02 c0.06 0.14 -0.04 0.22 0.72 0.96 c-0.02 0 -0.02 0 -0.02 0.02 c0 0.04 0.56 0.18 0.78 0.4 c0.04 0.04 0.6 0.22 1.42 0.22 c0.88 0 1.22 0.14 1.78 -0.42 c0.52 0 0.28 -0.34 0.56 -0.58 c0 -0.18 0.44 -0.78 0.44 -2.32 c0 -0.04 -0.06 -1.2 -0.1 -1.18 c0.04 0 -0.5 -0.1 -0.8 -0.1 c-0.1 0 -0.98 0.02 -1.06 0.02 c0 0.02 -0.02 0.02 -0.02 0.02 c-0.08 0 -0.22 -0.06 -0.22 -0.34 c0 -0.38 2.08 -0.38 3.18 -0.38 c0.06 0 0.1 0 0.2 0.04 c0.92 0 1.04 -0.04 1.26 -0.04 c0.04 0 0.12 0.04 0.18 0.04 l0.86 0 s0.4 -0.08 0.7 -0.08 c0.68 0 0.46 0.14 0.58 0.28 c0 0.36 -0.02 0.32 -0.14 0.38 l0.04 0.06 l-1.28 0 c-0.26 1.02 -0.16 1.22 -0.52 2.22 c-0.1 0.06 -0.08 0.48 -0.56 0.94 c0 0.04 -0.62 0.44 -0.66 0.58 c-0.3 0.3 -0.3 0.34 -0.66 0.44 c-0.06 -0.06 -0.28 0.3 -0.4 0.3 c-0.14 0 -0.7 0.28 -0.82 0.28 c0.22 0 -1.62 0.38 -2.56 0.38 c-0.08 0 -0.16 -0.02 -0.18 -0.06 c-0.16 0.06 -0.26 0.04 -0.32 0.04 l0.04 0 s-1.18 -0.2 -1.38 -0.2 c0 0.02 0.02 0.02 0.02 0.04 l-0.02 0 c-0.04 0 -0.52 -0.36 -0.74 -0.36 c-0.04 0.02 -0.08 0.02 -0.1 0.02 c-0.32 0 -0.4 -0.44 -0.68 -0.44 c-0.34 -0.1 -0.2 -0.1 -0.48 -0.32 c0 -0.02 -0.48 -0.16 -0.66 -0.58 c-0.44 -0.14 -1.24 -1.72 -1.44 -1.92 l0.02 -0.02 c0 -0.08 -0.24 -0.26 -0.24 -0.42 c0.06 -0.12 -0.3 -0.54 -0.3 -0.82 l0.02 0.02 c0.14 0.12 -0.22 -0.26 -0.22 -0.92 c0 0 0 0.02 0.02 0.02 c0.14 0.12 -0.22 -0.2 -0.22 -0.96 z M47.58 20.04 c0 0 -0.02 0.02 -0.02 0.04 l0.04 0 c0 -0.02 0 -0.04 -0.02 -0.04 z M47.38 19.92 l-0.08 0.08 l0.08 0 l0 -0.08 z M49.78 19.54 c-0.02 0 -0.04 0.02 -0.04 0.04 s0.02 0.04 0.04 0.04 s0.02 -0.02 0.02 -0.04 s0 -0.04 -0.02 -0.04 z M44.12 18.86 l0 0.08 l0.04 0 z M53.96 14.98 c0.02 0.04 0.06 0.04 0.1 0.04 c0.08 0 0.1 0.02 0.18 -0.04 l-0.28 0 z M48.88 14.940000000000001 c-0.02 0 -0.04 0.02 -0.04 0.04 s0.02 0.04 0.04 0.04 c0 0 0.02 -0.02 0.02 -0.04 s-0.02 -0.04 -0.02 -0.04 z M49.620000000000005 14.940000000000001 l-0.04 0.04 l0.08 0 z M50.28 14.9 c0 0 -0.04 0.06 -0.08 0.08 c0.02 0 0.04 0.02 0.16 -0.04 c-0.02 -0.02 -0.04 -0.04 -0.08 -0.04 z M54.28 14.940000000000001 c-0.02 0 -0.04 0.02 -0.04 0.04 s0.02 0.04 0.04 0.04 s0.02 -0.02 0.02 -0.04 s0 -0.04 -0.02 -0.04 z M54.58 14.98 c0 -0.02 -0.02 -0.02 -0.06 -0.02 c-0.02 0 -0.04 0 -0.04 0.02 s0.02 0.04 0.04 0.04 c0.04 0 0.06 -0.02 0.06 -0.04 z M48.74 14.879999999999999 c0.02 0.02 0.02 0.02 0.08 0.02 c-0.06 -0.02 -0.08 -0.02 -0.08 -0.02 z M41.3 14.66 l0 0.08 l0.04 -0.06 z M55.18 14.559999999999999 c-0.06 0 -0.18 0.04 -0.18 0.06 c0.06 0 0.18 0.04 0.18 -0.06 z M42.160000000000004 8.98 c0 -0.02 -0.02 -0.02 -0.04 -0.02 s-0.04 0 -0.04 0.02 s0.02 0.04 0.04 0.04 s0.04 -0.02 0.04 -0.04 z M43.42 6.9 c0 0.04 0 0.04 0.02 0.06 l-0.02 0 c0.04 0 0.14 -0.1 0.18 -0.14 c0 -0.02 -0.02 -0.02 -0.04 -0.02 c-0.06 0 -0.12 0.04 -0.14 0.1 z M44.160000000000004 6.08 l0 0.08 c0.02 0 0.02 -0.02 0.02 -0.04 s0 -0.04 -0.02 -0.04 z M50 5.84 c0 0.06 0 0.08 0.02 0.08 c0 0 0.02 -0.02 0.04 -0.02 c0 0 0.02 0.02 0.02 0.04 c0 0 -0.04 -0.08 -0.08 -0.14 l0 0.04 z M51.84 5.4399999999999995 c-0.02 0 -0.04 0.02 -0.04 0.02 c0 0.02 0.02 0.02 0.04 0.02 s0.02 0 0.02 -0.02 c0 0 0 -0.02 -0.02 -0.02 z M52.58 5.34 c0.04 0.02 0.06 0.04 0.1 0.04 c-0.02 -0.06 -0.06 -0.04 -0.1 -0.04 z M52.52 5.300000000000001 c-0.02 0 -0.04 0.02 -0.04 0.02 s0.02 0.02 0.04 0.02 s0.02 -0.02 0.02 -0.02 s0 -0.02 -0.02 -0.02 z M46.86 5.140000000000001 l-0.04 0 c0 0.02 0 0.04 0.02 0.04 c0 0 0.02 -0.02 0.02 -0.04 z M46.32 4.9 c0 0.16 0.02 0.24 0.14 0.24 c0.04 0 0.14 -0.08 0.14 -0.08 c-0.14 -0.16 -0.18 -0.1 -0.28 -0.16 z M46.04 4.98 c-0.08 0 -0.06 0.1 -0.06 0.16 c0.02 0 0.04 -0.1 0.06 -0.16 z M49.46 4.960000000000001 c0 0 -0.02 0 0.04 0.06 c0 -0.02 0.02 -0.04 0.02 -0.06 l-0.06 0 z M47.66 4.800000000000001 l0 0.16 c0.02 0 0.1 -0.06 0.1 -0.06 c0 -0.12 -0.06 -0.1 -0.1 -0.1 z M48.88 4.9 l-0.1 0.04 l0.1 0 l0 -0.04 z M49.22 4.9 c-0.02 0 -0.02 0.02 -0.02 0.02 c0 0.02 0 0.02 0.02 0.02 s0.02 0 0.02 -0.02 c0 0 0 -0.02 -0.02 -0.02 z M47.38 4.74 c-0.02 0 -0.04 0.02 -0.04 0.04 c0 0 0.02 0.02 0.04 0.02 l0.02 -0.02 c0 -0.02 -0.02 -0.04 -0.02 -0.04 z M60.3 19.86 c0 -0.12 0.06 -0.16 0.06 -0.18 c-0.08 0 -0.08 0 -0.12 0.02 c-0.16 0 -0.44 -0.16 -0.56 -0.16 c-1.02 -0.82 -1.14 -1.18 -1.34 -1.52 c0 -0.26 -0.26 -0.36 -0.26 -0.98 c-0.1 -1.62 -0.22 -3.18 -0.22 -4.54 c0 -1.28 0.02 -1.76 0.02 -2.32 c0 -0.16 -0.02 -2.74 -0.02 -4.36 l-0.12 -0.18 l-0.32 0 c-0.04 -0.18 -0.08 -0.42 -0.28 -0.42 c-0.16 0 -0.14 0.06 -0.14 0.18 c0.04 0 0.18 -0.06 0.2 -0.08 l0.04 0.04 l0 0.22 c-0.04 0.02 -0.06 0.02 -0.08 0.02 c-0.06 0 -0.16 -0.02 -0.18 -0.02 l0.02 0.02 l-0.04 0.04 c-0.28 0 -0.66 0.06 -0.78 0.06 c-0.4 -0.12 -0.36 -0.2 -0.36 -0.46 c0.08 -0.02 0.14 -0.32 0.48 -0.32 c0.1 -0.02 0.46 0.06 0.5 0.06 c0.06 0 0.12 -0.02 0.18 -0.06 l1.1 0 c0.02 0.02 0.02 0.06 0.04 0.06 c0.06 0 0.22 -0.06 0.34 -0.06 c0.18 0 0.3 0.02 0.34 0.04 l0.9 0 l0.04 -0.04 l1.06 0 l0.08 0.04 c0.04 -0.04 0.08 -0.04 0.12 -0.04 c0.24 0 0.3 0.04 0.38 0.04 c0.04 0 0.12 -0.04 0.12 -0.04 l0.98 0 c0.18 0 0.3 0.2 0.36 0.3 c0 0 -0.02 0.3 -0.04 0.32 l-0.2 0.1 c-0.92 0 -0.84 -0.06 -1.46 -0.06 c-0.18 0 -0.34 0.1 -0.34 0.76 c0 0.28 0.04 0.34 0.04 0.4 l0 0 s-0.04 0.4 -0.04 0.66 c0 0.12 -0.02 0.42 0.04 0.46 c-0.02 0.32 0.02 0.26 -0.04 0.32 c0 0.06 0.04 0.1 0.04 0.16 l0 1.44 c0 0.08 -0.06 0.22 -0.06 0.24 s0.02 0.06 0.06 0.12 l0 0.68 l-0.04 0.06 c0 0.38 0.04 0.46 0.04 0.68 l0 2.04 c-0.04 0.06 -0.04 0.1 -0.04 0.14 c0 0.32 0.04 0.36 0.04 0.48 c-0.02 0.08 -0.04 0.16 -0.04 0.22 c0 0.04 0 0.1 0.04 0.18 l0 1.9 c0 1.4 0.4 1.48 0.4 1.7 c-0.02 0.02 -0.04 0.04 -0.04 0.06 c0 0.12 0.36 0.3 0.38 0.52 c0 -0.02 0.44 0.52 0.78 0.52 c-0.04 0 0.58 0.32 1.16 0.32 c0.76 0 0.86 -0.02 1.06 -0.02 s0.96 0 1.06 -0.14 l0 0.02 c0.02 0 0.08 -0.22 0.3 -0.22 c0.78 0 1.52 -1.44 1.68 -1.6 c0 -1.2 0.32 -1.64 0.32 -2.28 c0 -1.08 -0.1 -3.76 -0.1 -4.06 c0 -0.04 0.06 -0.1 0.06 -0.18 l0 -1.68 c-0.02 -0.04 -0.06 -0.1 -0.06 -0.1 c0 -0.04 0.02 -0.06 0.06 -0.1 c0 -0.9 -0.06 -0.82 -0.06 -1.1 c0 -0.04 0.06 -0.1 0.06 -0.16 l0 -2.08 c0 -0.1 -0.04 -0.24 -0.2 -0.34 c-1.68 0 -1.04 0.06 -1.5 0.06 c-0.24 0 -0.34 -0.06 -0.34 -0.44 c0.14 -0.18 -0.3 -0.32 1.58 -0.32 c0.1 0 0.78 0.02 0.82 0.02 c0.04 0.02 0.16 0.06 0.14 0.06 c0.02 0 0.06 -0.02 0.14 -0.06 c0.02 0 1.44 -0.06 1.6 -0.06 c0.14 0 0.5 0 0.5 0.36 c0 0.48 -0.14 0.42 -0.3 0.42 c-0.08 0 -0.42 -0.02 -0.36 -0.1 l0.14 0 c-0.04 0 -0.04 -0.04 -0.08 -0.04 c-0.06 0 -0.26 0.1 -0.44 0.1 c-0.14 0 -0.28 -0.02 -0.42 -0.02 c-0.2 0 -0.58 0.04 -0.58 0.32 c0 0.3 0.1 1.78 0.1 3.42 c0 0.04 0 0.04 -0.02 0.08 l0 5 c-0.02 2.56 -0.4 3.12 -0.4 3.38 c0 0.68 -0.46 0.58 -0.46 0.76 c0.02 0.02 0.02 0.06 0.02 0.08 c0 0.14 -0.26 0.26 -0.36 0.38 c0 -0.06 0 -0.16 -0.16 -0.16 c-0.04 0 -0.12 0.04 -0.14 0.06 c0.26 0 0.1 0.18 0.24 0.18 c0 0.08 -0.28 0.2 -0.36 0.2 l0.02 0.04 c-0.02 0 -0.02 -0.02 -0.02 -0.02 c-0.02 0.06 0.08 0.34 -0.38 0.34 c-0.38 0 -0.32 0.16 -0.36 0.2 l0.06 0.02 c0 0.02 -0.2 0.16 -0.48 0.16 c-0.02 0 -0.02 -0.02 -0.04 -0.04 c-0.2 0 -0.14 0.2 -0.4 0.2 c-0.36 0.1 -0.92 0.2 -1.64 0.2 c-2.32 0 -3.52 -0.46 -3.52 -0.52 z M63.86 20.02 l0 0.04 c0.06 0.02 0 0.26 0.06 0.26 s0.14 0 0.14 -0.04 c0 -0.08 -0.08 -0.16 -0.08 -0.22 c0 -0.02 0 -0.02 0.02 -0.04 l-0.14 0 z M63.78 20.26 l0 0.04 l0.06 0 l-0.02 -0.04 l-0.04 0 z M64.42 20.14 c-0.04 0 -0.04 0.04 -0.04 0.08 l0.06 0 c0 -0.02 -0.02 -0.06 -0.02 -0.08 z M64.38 20.06 l-0.02 0.02 c0 0.02 0.02 0.02 0.02 0.02 c0.02 0 0.02 0 0.02 -0.02 c0 0 0 -0.02 -0.02 -0.02 z M63.379999999999995 19.98 c-0.02 0 -0.04 0 -0.06 0.02 l0.1 0 z M63.78 19.98 l0 0.02 l0.04 0 z M63.48 19.94 c0 0 -0.02 0.02 -0.02 0.04 l0.02 0.02 c0.02 0 0.02 -0.02 0.02 -0.02 c0 -0.02 0 -0.04 -0.02 -0.04 z M63.04 19.9 l0 0.04 l0.06 0 l-0.02 -0.04 l-0.04 0 z M64.16 19.9 c-0.02 0 -0.02 0.02 -0.02 0.04 s0 0.04 0.02 0.04 s0.02 -0.02 0.02 -0.04 s0 -0.04 -0.02 -0.04 z M66 19.58 c-0.2 0 -0.18 0.16 -0.18 0.26 c0.14 -0.28 0.16 -0.16 0.2 -0.26 l-0.02 0 z M65.46 19.7 c-0.02 0 -0.04 0.02 -0.04 0.04 s0.02 0.04 0.04 0.04 l0 -0.08 z M66.75999999999999 19.48 c-0.02 0 -0.04 0.02 -0.04 0.04 c0 0 0.02 0.02 0.04 0.02 s0.02 -0.02 0.02 -0.02 c0 -0.02 0 -0.04 -0.02 -0.04 z M66.6 19.24 c-0.08 0 -0.06 0 -0.08 0.02 c0.16 0 0.1 0 0.16 -0.02 l-0.08 0 z M67.06 19.2 c-0.02 0 -0.02 0.02 -0.02 0.04 c0 0 0 0.02 0.02 0.02 s0.02 -0.02 0.02 -0.02 c0 -0.02 0 -0.04 -0.02 -0.04 z M61.519999999999996 19.12 c-0.02 0 -0.02 0.02 -0.02 0.04 s0 0.04 0.02 0.04 c0 0 0.02 -0.02 0.02 -0.04 s-0.02 -0.04 -0.02 -0.04 z M67.17999999999999 19 c-0.02 0 -0.02 0.02 -0.02 0.04 s0 0.04 0.02 0.04 s0.02 -0.02 0.02 -0.04 s0 -0.04 -0.02 -0.04 z M67.66 18.64 c-0.04 0 -0.12 0.1 -0.12 0.14 c0.16 0 0.08 -0.1 0.16 -0.14 l-0.04 0 z M59.08 18.54 l0.02 0.04 l0 -0.06 z M67.78 18.42 l-0.04 0.1 l0.08 -0.06 c-0.02 -0.02 -0.02 -0.04 -0.04 -0.04 z M58.559999999999995 18.06 c-0.02 0 -0.04 0.02 -0.04 0.04 s0.02 0.04 0.04 0.04 s0.02 -0.02 0.02 -0.04 s0 -0.04 -0.02 -0.04 z M67.7 17.82 l-0.02 0.02 c0 0.02 0.02 0.02 0.06 0.02 c0.06 0 0.06 -0.1 0.06 -0.12 c-0.12 0 -0.1 0.1 -0.1 0.08 z M68.17999999999999 17.740000000000002 l-0.02 -0.02 z M68.17999999999999 17.12 c-0.04 0.1 -0.02 0.14 -0.02 0.14 c0.02 -0.02 0.02 0.02 0.02 -0.14 z M58.18 17 c-0.02 0 -0.04 0.02 -0.04 0.02 c0 0.02 0.02 0.02 0.04 0.02 c0 0 0.02 0 0.02 -0.02 z M68.32 16.88 c0.02 0.04 0.04 0.04 0.08 0.04 c0 -0.02 -0.02 -0.08 -0.02 -0.12 c-0.04 0 -0.04 0.04 -0.06 0.08 z M58.14 16.64 c0 0.1 0.06 0.2 0.06 0.2 l0 -0.2 l-0.06 0 z M68.34 16.38 c-0.14 0 -0.04 0.18 -0.12 0.2 c0.12 0 0.14 -0.02 0.18 -0.02 c0 -0.06 -0.06 -0.1 -0.06 -0.18 z M68.1 16.22 c0.04 0.02 0.06 0.04 0.06 0.08 l0.02 -0.04 c0 -0.04 0 -0.04 -0.02 -0.06 z M58.519999999999996 16.18 c0 -0.02 -0.02 -0.02 -0.02 -0.02 c-0.02 0 -0.02 0 -0.02 0.02 s0 0.02 0.02 0.02 c0 0 0.02 0 0.02 -0.02 z M68.48 15.74 l-0.04 0.04 l0.04 0 l0 -0.04 z M68.1 14.68 c-0.02 0 -0.04 0.02 -0.04 0.04 s0.02 0.04 0.04 0.04 c0 0 0.02 -0.02 0.02 -0.04 s-0.02 -0.04 -0.02 -0.04 z M68.16 14.219999999999999 c-0.02 0 -0.04 0 -0.04 0.02 c0 0 0.02 0.02 0.04 0.02 l0 -0.04 z M68.16 14.04 c-0.02 0 -0.04 0.02 -0.04 0.04 c0 0 0.02 0.02 0.04 0.02 l0 -0.06 z M68.48 14.04 c-0.02 0 -0.04 0 -0.04 0.02 l0.04 0 l0.02 0 c0 -0.02 0 -0.02 -0.02 -0.02 z M68.1 13.98 c0 0.06 0 0.06 0.02 0.06 l0.04 -0.02 l-0.06 -0.04 l0 0 z M58.1 13.780000000000001 c-0.02 0 -0.02 0.02 -0.02 0.04 s0 0.04 0.02 0.04 s0.02 -0.02 0.02 -0.04 s0 -0.04 -0.02 -0.04 z M68.48 13.5 l0 0.06 l0.04 0 c0 -0.04 -0.02 -0.06 -0.04 -0.06 z M58.1 9.7 l0 0.02 l0.1 0 c-0.04 -0.04 -0.08 -0.02 -0.1 -0.02 z M68.48 9.48 c0 0.04 -0.02 0.16 0.04 0.16 l0 0.08 z M68.48 8.64 l-0.04 0 c0 0.02 0.02 0.02 0.04 0.02 s0.02 0 0.02 -0.02 l-0.02 0 z M56.019999999999996 5.539999999999999 c0.02 0.04 0.08 0.04 0.12 0.06 l0.04 -0.02 c-0.02 -0.04 -0.06 -0.04 -0.16 -0.04 z M56.6 5.6 c0 -0.02 -0.02 -0.02 -0.02 -0.02 c-0.02 0 -0.02 0 -0.02 0.02 s0 0.04 0.02 0.04 c0 0 0.02 -0.02 0.02 -0.04 z M57.72 5.58 c0 0 -0.02 0 -0.02 0.02 s0.02 0.04 0.02 0.04 s0.02 -0.02 0.02 -0.04 s-0.02 -0.02 -0.02 -0.02 z M56.28 5.539999999999999 l0.02 0.04 c0.12 0 0.1 -0.04 0.1 -0.1 z M61.9 5.52 l0 0.02 l0.16 0 c-0.06 -0.02 -0.14 -0.02 -0.16 -0.02 z M66.22 5.52 c-0.02 0 -0.04 0 -0.04 0.02 l0.04 0 l0.02 0 c0 -0.02 0 -0.02 -0.02 -0.02 z M67.8 5.48 l0 0.04 s0 0.02 0.02 0.02 c0 0 0.02 -0.02 0.04 -0.06 l-0.06 0 z M69.06 5.4399999999999995 c0.02 0.1 0.06 0.08 0.22 0.08 c-0.06 0 -0.1 -0.08 -0.16 -0.14 c-0.04 0 -0.08 0.02 -0.08 0.04 z M66.06 5.279999999999999 l0 0.2 l0.04 0 c0.02 -0.02 -0.04 -0.12 -0.04 -0.2 z M70.32 5.08 c0 0.18 0.18 0.18 0.18 0.32 l0.06 0 c0 -0.16 -0.14 -0.18 -0.18 -0.36 c-0.06 0 -0.06 0.02 -0.06 0.04 z M68.16 5.24 c0 0.06 0.04 0.1 0.1 0.12 l0.08 -0.08 c0.24 0 0.12 0.04 0.32 0.04 c0.06 0 0.14 -0.02 0.14 -0.1 c-0.02 0 -0.2 0.02 -0.26 0.02 c-0.04 0 -0.08 -0.02 -0.1 -0.02 s-0.06 0 -0.12 0.02 l-0.1 -0.02 z M57.42 5.279999999999999 c-0.02 0 -0.02 0.02 -0.02 0.04 s0 0.04 0.02 0.04 s0.02 -0.02 0.02 -0.04 s0 -0.04 -0.02 -0.04 z M58.04 5.24 l0 0.04 l0.06 0 l0 -0.04 l-0.06 0 z M69.7 5.279999999999999 l-0.04 0 l0.04 0 z M56.92 5.24 l-0.04 -0.02 l0.04 0.06 l0 -0.04 z M61.42 5.220000000000001 c-0.02 0 -0.04 0 -0.04 0.02 s0.02 0.04 0.04 0.04 s0.02 -0.02 0.02 -0.04 s0 -0.02 -0.02 -0.02 z M62.14 5.199999999999999 l0 0.02 l0.02 0 z M62.26 5.220000000000001 l-0.02 -0.02 c-0.02 0 -0.02 0.02 -0.02 0.02 s0 0.02 0.02 0.02 z M67.42 5.220000000000001 l-0.02 -0.02 c-0.02 0 -0.02 0.02 -0.02 0.02 s0 0.02 0.02 0.02 z M69.08 5.199999999999999 l0 0.02 l0.08 0 c-0.06 -0.02 -0.08 -0.02 -0.08 -0.02 z M56.18 5.199999999999999 c0 -0.02 -0.04 -0.02 -0.08 -0.02 c-0.02 0 -0.04 0 -0.04 0.02 c0 0 0.02 0.02 0.04 0.02 s0.06 0 0.08 -0.02 z M62.58 5.16 c-0.04 0 -0.08 0 -0.1 0.04 l0.1 0 l0 -0.04 z M66.17999999999999 5.16 c0 0 -0.02 0.02 -0.02 0.04 l0.02 0.02 c0.02 0 0.02 -0.02 0.02 -0.02 c0 -0.02 0 -0.04 -0.02 -0.04 z M66.25999999999999 5.16 l0 0.04 c0.02 0 0.04 -0.02 0.06 -0.04 l-0.06 0 z M71.17999999999999 19.72 l0 -0.1 l0.24 -0.24 l0.98 0 l0.08 0.04 l0.46 0.04 c0.08 0.04 0.18 -0.26 0.24 -0.26 l0 -2.42 c0 -0.02 -0.04 -0.26 -0.04 -0.28 c0 0 0.04 -0.48 0.04 -0.58 c0.04 -0.06 -0.06 0.08 -0.06 -0.32 c0 -0.04 0.06 -0.08 0.06 -0.16 c0 -0.14 -0.04 -0.22 -0.04 -0.32 c0 -0.04 0.04 -0.18 0.04 -0.26 l0 -1.26 c0 -0.18 -0.06 -0.5 -0.06 -0.74 l0.02 -1.72 c-0.02 -0.08 -0.02 -0.6 -0.02 -0.7 c0 -0.06 0.02 -0.52 0.02 -0.58 c0 -0.02 -0.02 -1.04 -0.02 -1.16 c0 -1.24 0.02 -1.46 0.02 -2 c0 -0.24 0 -0.76 -0.02 -0.92 l-0.12 -0.14 s-0.4 -0.02 -0.56 -0.02 c-0.26 0 -0.46 0.06 -0.7 0.06 c-0.22 -0.04 -0.44 0.12 -0.64 -0.34 c0 -0.18 0.04 -0.4 0.22 -0.44 c4.08 0 4.5 0.04 6.12 0.04 c3.88 0 3.66 -0.04 5.28 -0.04 c0.2 0 0.42 3.66 0.42 3.84 c0 0.02 0.02 0.02 0.02 0.04 c0 0.24 -0.36 0.42 -0.48 0.42 c-0.26 0 -0.4 -0.28 -0.48 -0.6 c0.08 0 -0.86 -1.54 -0.82 -1.46 c-0.26 -0.26 -0.28 -0.3 -0.44 -0.5 c0 -0.18 -0.86 -0.58 -0.96 -0.72 c0 0.02 -0.02 0.02 -0.02 0.02 c-0.06 0 -0.12 -0.24 -0.54 -0.24 c-0.56 0 -0.52 -0.08 -1.38 -0.08 l0 -0.04 l-0.62 0 l-0.04 0.04 l-0.26 0 l0.14 -0.04 c-0.46 0 -0.66 -0.06 -0.78 -0.06 c-0.18 0 -0.4 0.1 -0.4 0.68 c0 1.12 0.04 1.72 0.04 2 c0 0.3 -0.04 1.18 -0.04 1.3 c0 0.34 0.08 0.62 0.08 0.86 c-0.04 0 -0.08 0.14 -0.08 0.2 s0.08 0.44 0.08 0.62 c0 0.04 -0.04 0.1 -0.04 0.12 c0 0.06 -0.06 0.82 0.14 0.82 c0.46 0 0.8 -0.12 1.16 -0.12 l0 0.02 c0.06 0 0.24 -0.3 0.38 -0.3 c0.24 0 0.28 -0.08 0.54 -0.34 l0 0.02 c-0.02 0 0.34 -0.72 0.54 -0.96 c0.34 -0.16 -0.12 -1 0.88 -1 l0.06 0.04 c0 0.18 0.1 0.24 0.1 0.8 c-0.02 0.16 -0.04 0.68 -0.04 0.64 c0 0.22 0.04 0.56 0.04 0.84 c0 0.24 0 0.24 -0.04 0.36 c0 0.2 0.04 0.46 0.04 0.52 c0 0.26 -0.04 0.26 -0.04 0.46 c0 0.16 0.04 1.24 0.04 1.38 c0 0.08 -0.04 0.16 -0.04 0.28 l0 0.74 c0.02 0.02 -0.16 0.16 -0.26 0.16 c-0.64 0 -0.1 -0.12 -0.82 -1.42 c-0.56 -0.98 -0.74 -0.94 -1.06 -1.22 c0.02 0 -0.58 -0.2 -0.72 -0.2 l-0.06 -0.1 l-0.64 -0.02 c-0.3 0.16 -0.26 1 -0.26 0.68 c0 0.08 0.06 0.28 0.06 0.58 c0 0.14 -0.02 0.38 -0.06 0.6 c0 0.02 0.06 0.2 0.06 0.32 c0 0.2 -0.04 0.18 -0.04 0.26 c0 0.14 0.04 0.22 0.04 0.28 c-0.06 0.78 -0.08 2.18 -0.08 2.42 c0 1.26 -0.02 1.36 0.28 1.66 l0.86 0 c0.08 -0.02 0.18 -0.08 0.26 -0.08 c0.02 0 1.2 0.04 1.36 0.04 s0.02 -0.1 0.44 -0.1 c0.76 -0.3 0.72 -0.04 1.36 -0.54 c-0.02 0 -0.02 -0.02 -0.02 -0.02 c0 -0.06 0.5 -0.28 0.76 -0.6 c-0.02 0 -0.02 -0.02 -0.02 -0.02 c0 -0.3 0.88 -0.52 0.88 -1.24 c0 -0.08 0.36 -0.54 0.36 -0.66 c0.5 -1.26 0.18 -1.2 0.82 -1.2 c0.02 0 0.24 0 0.24 0.26 c0 1.3 -0.2 2.9 -0.2 3.8 c0 0.14 0.02 0.28 0.02 0.42 c0 0.24 -0.08 0.44 -0.56 0.44 l-7.7 0 c-1.16 0 -1.58 0.04 -3.72 0.04 c-0.38 -0.12 -0.28 -0.28 -0.28 -0.32 z M71.38 19.8 l0 -0.02 l0 0.06 c0 0.06 0.02 0.14 0.2 0.14 c0.04 0 0.1 0 0.16 -0.02 l0 -0.04 l-0.16 -0.18 c-0.02 0.04 -0.04 0.08 -0.08 0.1 c-0.02 0 -0.08 -0.02 -0.12 -0.06 l0 0.02 z M78.48 19.88 l0.02 0.04 c0.02 -0.02 0.02 -0.02 0.02 -0.08 z M77.7 19.84 c-0.06 0 -0.08 0 -0.1 0.04 l0.1 0 l0 -0.04 z M72.08 19.62 c0.04 0 0.12 0.04 0.14 0.04 c0.18 0 0.12 0 0.18 -0.04 c-0.04 0 -0.18 -0.04 -0.2 -0.04 c-0.08 0 -0.08 0 -0.12 0.04 z M83.06 19.62 c0.02 0.06 0.08 0.04 0.12 0.04 c-0.02 -0.04 -0.06 -0.04 -0.12 -0.04 z M73.62 19.62 c0 -0.02 -0.02 -0.02 -0.04 -0.02 s-0.04 0 -0.04 0.02 s0.02 0.04 0.04 0.04 s0.04 -0.02 0.04 -0.04 z M71.5 19.56 l0 0.02 l0.2 0 c-0.04 -0.02 -0.16 -0.02 -0.2 -0.02 z M73.34 16.9 l-0.02 -0.02 c-0.02 0 -0.02 0.02 -0.02 0.02 c0 0.02 0 0.04 0.02 0.04 c0 0 0.02 -0.02 0.02 -0.04 z M73.3 16.04 l0 0.08 c0.02 0 0.02 -0.02 0.02 -0.04 s0 -0.04 -0.02 -0.04 z M73.34 15.92 c0.02 0.04 0.06 0.04 0.12 0.04 c0 -0.04 0.02 -0.16 -0.04 -0.2 c0 0.04 -0.08 0.1 -0.08 0.16 z M73.46 15.54 c0 0.02 0 0.04 0.02 0.06 l0.02 -0.06 l-0.04 0 z M83.46 15.54 c-0.02 0 -0.04 0.02 -0.04 0.04 c0 0 0.02 0.02 0.04 0.02 s0.02 -0.02 0.02 -0.02 c0 -0.02 0 -0.04 -0.02 -0.04 z M83.56 15.5 c-0.02 0 -0.02 0.02 -0.02 0.04 c0 0 0 0.02 0.02 0.02 l0 -0.06 z M73.34 12.48 c-0.02 0 -0.04 0.02 -0.04 0.04 c0 0 0.02 0.02 0.04 0.02 s0.02 -0.02 0.02 -0.02 c0 -0.02 0 -0.04 -0.02 -0.04 z M73.48 12.48 c0 -0.02 0 -0.02 -0.02 -0.02 l0 0.04 c0.02 0 0.02 0 0.02 -0.02 z M73.34 11.6 l-0.02 -0.02 c-0.02 0 -0.02 0.02 -0.02 0.02 c0 0.02 0 0.04 0.02 0.04 c0 0 0.02 -0.02 0.02 -0.04 z M79.72 9.92 c0 -0.02 -0.02 -0.02 -0.04 -0.02 c0 0 -0.02 0 -0.02 0.02 s0.02 0.04 0.02 0.04 c0.02 0 0.04 -0.02 0.04 -0.04 z M82.56 8.96 c-0.02 0 -0.04 0.02 -0.04 0.04 c0 0 0.02 0.02 0.04 0.02 s0.02 -0.02 0.02 -0.02 c0 -0.02 0 -0.04 -0.02 -0.04 z M75.6 7.960000000000001 c-0.02 0.02 -0.02 0.06 -0.02 0.08 l0.22 0 c-0.02 -0.04 -0.1 -0.08 -0.2 -0.08 z M73.3 7.18 l0 0.08 c0.02 0 0.02 -0.02 0.02 -0.04 s0 -0.04 -0.02 -0.04 z M73.3 6.16 l0 0.08 c0.02 0 0.02 -0.02 0.02 -0.04 s0 -0.04 -0.02 -0.04 z M82.76 5.42 l0 0.2 l0.02 -0.1 c0 -0.04 0 -0.06 -0.02 -0.1 z M72.6 5.539999999999999 c-0.02 0 -0.02 0.02 -0.02 0.04 s0 0.04 0.02 0.04 s0.02 -0.02 0.02 -0.04 s0 -0.04 -0.02 -0.04 z M74.28 5.58 c0 -0.02 -0.02 -0.02 -0.02 -0.02 c-0.02 0 -0.02 0 -0.02 0.02 s0 0.04 0.02 0.04 c0 0 0.02 -0.02 0.02 -0.04 z M72.04 5.380000000000001 c-0.18 0 -0.08 0.14 -0.14 0.16 c0.12 0 0.14 -0.02 0.14 -0.06 c0 -0.02 -0.02 -0.04 -0.02 -0.06 s0.02 -0.02 0.02 -0.04 z M72.52 5.48 l0.06 0.04 l0.02 -0.04 l-0.04 -0.02 z M71.64 5.42 c-0.02 0 -0.02 0.02 -0.02 0.04 c0 0 0 0.02 0.02 0.02 s0.02 -0.02 0.02 -0.02 c0 -0.02 0 -0.04 -0.02 -0.04 z M71.84 5.34 l-0.14 0.04 l0.14 0 l0 -0.04 z M73.62 5.34 c-0.02 0 -0.04 0.02 -0.04 0.02 c0 0.02 0.02 0.02 0.04 0.02 c0 0 0.02 0 0.02 -0.02 z M75.64 5.34 l0 0.04 l0.02 0 z M71.94 5.34 l-0.04 0 c0 0.02 0 0.04 0.02 0.04 c0 0 0.02 -0.02 0.02 -0.04 z M72.4 5.32 c-0.04 0 -0.04 0.04 -0.04 0.04 c0.02 0 0.02 -0.02 0.04 -0.04 z M73.26 5.34 l-0.04 0 c0 0.02 0 0.04 0.02 0.04 c0 0 0.02 -0.02 0.02 -0.04 z M76.52 5.32 c-0.04 0 -0.08 0.02 -0.12 0.02 l0.14 0 z M71.34 5.32 c0 0 0 -0.02 -0.02 -0.02 l0 0.04 c0.02 0 0.02 0 0.02 -0.02 z M77.38 5.26 c0 0.08 0.02 0.04 0.04 0.06 c0 0 0.02 0 0.04 -0.02 l-0.04 -0.08 z M82.68 5.0600000000000005 l0 0.24 l0.04 0 c0 -0.06 0.02 -0.24 -0.04 -0.24 z M72.16 5.1 c-0.02 0 -0.04 0.02 -0.04 0.02 c0 0.02 0.02 0.02 0.04 0.02 s0.02 0 0.02 -0.02 c0 0 0 -0.02 -0.02 -0.02 z M71.5 5.1 l-0.02 -0.04 z M71.74 5.02 c-0.04 0.02 -0.06 0.04 -0.06 0.06 l0.02 0.02 l0.04 0 l0 -0.08 z M92.98 19.68 c0 -0.26 0.1 -0.14 0.22 -0.22 c0.14 0 0.38 0.02 0.64 0.02 c0.52 0 1.14 -0.06 1.2 -0.44 c0 -0.38 -0.06 -0.34 -0.06 -0.84 c0 -0.18 0.02 -1.7 0.02 -1.9 c0 -0.26 -0.02 -0.72 -0.02 -1.22 l0 -6.48 c0 -0.02 0.02 -0.2 0.02 -0.22 s-0.02 -0.06 -0.02 -0.28 l0 -2.08 c-0.04 -0.12 -0.04 -0.42 -0.16 -0.42 c-0.54 0 -1.4 0.06 -1.48 0.06 c-0.16 0 -0.38 -0.04 -0.38 -0.28 c0 -0.46 0.22 -0.44 0.28 -0.5 l1.16 0.02 s0.36 0.02 0.48 0.02 c0.06 0 0.18 -0.02 0.4 -0.02 l1.86 0 c0.04 0 0.14 -0.04 0.18 -0.04 s0.14 0.04 0.24 0.04 l3.14 -0.02 c0.18 0.02 0.66 0.16 1.2 0.16 c-0.02 0 -0.02 -0.02 -0.02 -0.02 c0.04 0 0.38 0.22 0.74 0.22 c0.06 0 0.78 0.02 0.78 0.3 c0 -0.02 0 -0.04 0.06 -0.04 c0.1 0 0.4 0.1 1.18 0.6 l0 0.04 c0.04 0.16 0.64 0.38 0.88 0.72 c0.02 0.24 0.7 0.72 0.7 0.88 c-0.02 0.02 -0.02 0.02 -0.02 0.04 l0 -0.02 c0.06 0 0.5 0.78 0.76 1.56 c-0.02 0 -0.02 0.02 -0.02 0.02 c0 0.12 0.46 0.74 0.46 1.68 c0.06 0.32 0.12 1.68 0.12 1.9 c0 0.14 -0.08 0.48 -0.08 0.74 c0 0 -0.16 0.76 -0.16 0.84 l-0.02 -0.02 c-0.06 0 0 0.74 -0.24 0.98 c-0.1 0 0.08 0.44 -0.32 0.84 c-0.06 0.04 -0.16 0.16 -0.16 0.42 c-0.72 1.24 -0.72 0.76 -0.98 1.3 c0 0.14 -0.16 0.12 -0.28 0.2 c-0.32 0.54 -0.88 0.76 -1.76 1.2 c-0.3 0 -0.84 0.38 -1.34 0.42 c0 0.02 -2.22 0.16 -3.24 0.16 c-0.24 0 -0.5 -0.02 -0.74 -0.02 c-0.12 0 -2.58 0.02 -3.5 0.04 c-0.08 0 -0.3 -0.02 -0.62 -0.02 c-0.34 0 -0.38 0.1 -0.76 0.1 c-0.18 -0.02 -0.34 -0.12 -0.34 -0.42 z M93.2 19.9 c0.1 0.04 0.16 0.04 0.2 0.04 c0.12 0 0.1 0 0.12 -0.04 l-0.32 0 z M94.08 19.94 c0 -0.02 -0.02 -0.02 -0.02 -0.02 c-0.02 0 -0.02 0 -0.02 0.02 s0 0.04 0.02 0.04 c0 0 0.02 -0.02 0.02 -0.04 z M94.34 19.9 c-0.02 0 -0.04 0.02 -0.04 0.04 s0.02 0.04 0.04 0.04 s0.02 -0.02 0.02 -0.04 s0 -0.04 -0.02 -0.04 z M99.56 19.86 c-0.02 0 -0.04 0.02 -0.04 0.04 s0.02 0.04 0.04 0.04 s0.02 -0.02 0.02 -0.04 s0 -0.04 -0.02 -0.04 z M99.88 19.9 c0 -0.02 -0.02 -0.02 -0.02 -0.02 c-0.02 0 -0.02 0 -0.02 0.02 s0 0.04 0.02 0.04 c0 0 0.02 -0.02 0.02 -0.04 z M93.56 19.62 c-0.06 0.02 -0.06 0.08 -0.06 0.12 c0.04 -0.02 0.06 -0.08 0.06 -0.12 z M93.18 19.58 c0 0.06 0.02 0.06 0.1 0.1 l-0.02 0.02 c0.04 0 0.16 -0.08 0.14 -0.14 c-0.06 0 -0.22 0 -0.22 0.02 l0 0 z M93.5 19.58 c-0.02 0 -0.02 0.02 -0.02 0.04 s0 0.02 0.02 0.02 l0 -0.06 z M97.94 18.64 c0.06 0.46 0.04 0.78 0.26 0.78 l1.36 0 c0.04 0 0.08 -0.02 0.12 -0.02 c0 0 0.14 0.02 0.26 0.02 c0.3 0 0.74 -0.02 0.9 -0.1 c-0.16 -0.12 0.18 0.16 0.6 -0.16 c0.94 -0.06 0.58 -0.2 0.94 -0.38 c0.06 0 0.48 -0.24 0.56 -0.42 c0 -0.16 0.32 -0.24 0.34 -0.32 c-0.02 -0.02 -0.04 -0.04 -0.04 -0.06 c0 -0.12 0.34 -0.2 0.34 -0.52 c-0.02 -0.02 -0.02 -0.02 -0.02 -0.04 c0 -0.08 0.2 -0.14 0.2 -0.5 l0 0.02 c0.06 0 0.46 -1.64 0.46 -2.48 c0 -0.02 -0.02 -0.32 -0.02 -0.64 s0.02 -0.64 0.1 -0.7 c0 -0.04 -0.04 -0.24 -0.04 -0.28 c0 0 0.04 -0.4 0.04 -0.44 c0 -5.4 -1.38 -5.74 -1.92 -6.3 c-0.4 0 -0.48 -0.36 -1.06 -0.36 c-1.08 -0.06 -1.6 -0.14 -3.14 -0.14 c-0.3 0.76 -0.04 1.54 -0.26 1.96 c0 0.04 0.06 0.14 0.06 0.62 c0 0.24 0 0.22 -0.04 0.3 l0 1.06 c0 0.02 0.04 0.16 0.04 0.2 c-0.02 0.02 -0.04 0.08 -0.04 0.08 c0 0.04 0.04 0.28 0.04 0.44 l-0.04 0.04 c0 0.02 0.04 0.2 0.04 0.26 l0 2.32 c0 0.04 0.02 0.2 0.02 0.24 c0 0.32 -0.06 1.24 -0.06 1.92 c0 0.16 0.04 0.3 0.04 0.36 c0 0.2 -0.04 0.44 -0.04 0.64 c0 0.26 0.02 0.78 0.06 0.78 c0 0.02 -0.02 0.34 -0.02 0.38 c0 0.02 -0.02 0.02 -0.02 0.04 s0.04 0.08 0.04 0.2 c0 0.04 0 0.24 -0.06 1.2 z M95.16 18.56 c-0.02 0 -0.02 0 -0.02 0.02 s0 0.04 0.02 0.04 s0.02 -0.02 0.02 -0.04 s0 -0.02 -0.02 -0.02 z M104.62 15.440000000000001 l0 0.02 l0.02 0 z M97.28 9.7 l-0.04 0.04 l0.04 0 l0 -0.04 z M95.16 8.06 c-0.04 0.08 -0.02 0.24 -0.02 0.32 z M95.24000000000001 7.960000000000001 c-0.02 0 -0.04 0.02 -0.04 0.04 c0 0 0.02 0.02 0.04 0.02 s0.02 -0.02 0.02 -0.02 c0 -0.02 0 -0.04 -0.02 -0.04 z M104.34 6.76 l-0.02 -0.02 c-0.02 0 -0.02 0.02 -0.02 0.02 c0 0.02 0 0.04 0.02 0.04 c0 0 0.02 -0.02 0.02 -0.04 z M104.48 6.76 c0 0 -0.02 -0.02 -0.04 -0.02 l-0.02 0.02 c0 0.02 0.02 0.04 0.02 0.04 c0.02 0 0.04 -0.02 0.04 -0.04 z M101.4 5.279999999999999 c0 0.08 0.04 0.1 0.06 0.1 s0.02 -0.02 0.02 -0.02 c0 -0.06 -0.08 -0.12 -0.16 -0.12 c-0.04 0.02 -0.16 -0.02 -0.2 0.04 l0.28 0 z M94.18 5.24 c-0.02 0 -0.04 0.02 -0.04 0.04 s0.02 0.04 0.04 0.04 s0.02 -0.02 0.02 -0.04 s0 -0.04 -0.02 -0.04 z M98.34 5.24 c-0.06 0 -0.06 0.02 -0.08 0.04 l0.08 -0.04 l0 0 z M100.52000000000001 5.24 l-0.22 0 l0 0.04 c0.1 0 0.28 0.02 0.32 -0.04 l-0.1 0 z M100.78 5.24 c0 -0.02 -0.02 -0.02 -0.02 -0.02 c-0.02 0 -0.02 0 -0.02 0.02 l0.04 0 z M112.96 19.76 c-0.02 0 -0.16 -0.02 -0.18 -0.02 c-0.9 -0.56 -1.08 -0.58 -1.46 -0.74 c0 -0.36 -0.4 -0.24 -0.54 -0.46 c0 -0.14 -0.66 -0.36 -0.66 -0.68 c-0.34 -0.04 -0.18 -0.44 -0.44 -0.54 c0.04 -0.06 -0.42 -0.3 -0.42 -0.56 c0 -0.24 -0.52 -0.8 -0.52 -1.02 c0 -0.28 -0.46 -1.04 -0.46 -1.52 c-0.02 0 -0.24 -1.06 -0.24 -1.42 c0 -0.48 0.06 -0.9 0.06 -1.24 c0 0 0.36 -1.28 0.36 -1.46 c-0.02 0 -0.04 -0.02 -0.04 -0.04 c0 -0.1 0.3 -0.28 0.3 -0.62 c0.22 -0.66 -0.1 0.06 0.38 -0.92 c0.26 0 -0.02 -0.14 0.42 -0.58 l0 0.04 c0.02 0 0.02 -0.48 0.32 -0.48 c0 -0.02 0.2 -0.54 0.68 -0.84 c0.04 0 0.1 -0.26 0.18 -0.26 c1.2 -1 0.96 -0.66 1.42 -1.12 l0 0.04 c0.08 0 0.52 -0.32 0.62 -0.32 c0 0 0.4 -0.34 1.02 -0.34 c0.04 0 0.06 0.02 0.06 0.02 c0.1 0 -0.22 -0.24 1.62 -0.24 c0.76 0 0.7 0.16 1.3 0.16 c-0.02 0 -0.02 -0.02 -0.02 -0.02 c0.02 0 0.26 0.22 0.38 0.22 l0.62 0.08 l0.2 0.16 l0 0.04 c0.08 0 0.6 0.24 0.64 0.24 c0.02 0.02 0.02 0.04 0.04 0.04 c0.06 0 0.12 -0.14 0.3 -0.2 c0.5 -0.06 0 -0.32 0.96 -0.32 c-0.2 0.1 0.26 -0.16 0.26 0.32 c0 0.92 0.08 1.52 0.08 2.52 c0 0.16 -0.04 0.24 -0.04 0.34 c0 0.08 0.12 0.38 0.12 1.1 c0 0.32 -0.1 0.18 -0.2 0.28 l-0.52 0 c-0.06 0 -0.36 -0.48 -0.38 -0.6 l0 -0.02 c-0.04 0 -0.1 -0.38 -0.26 -0.56 c-0.02 0 -0.14 -0.64 -0.44 -1.06 c0 -0.04 -0.44 -0.44 -0.44 -0.54 c0.02 0 0.02 0 0.02 -0.02 c0 -0.06 -0.38 -0.28 -0.4 -0.34 c0.02 -0.26 -0.56 -0.36 -0.56 -0.6 c-0.2 0 -0.5 -0.54 -1.56 -0.54 c-1.3 0 -1.64 0.06 -2.08 0.32 c0 0.14 -0.6 0.08 -0.6 0.44 c-0.02 0 -0.22 0.14 -0.26 0.14 c-0.06 0.06 -0.08 0.06 -0.08 0.08 s0.02 0.02 0.02 0.06 l0 0 c-0.04 0 -0.74 1.22 -0.74 1.78 c0 0.08 -0.1 0.54 -0.12 0.56 l-0.06 0.82 l-0.04 0.04 l0 0.42 c-0.06 0 -0.12 0.76 -0.12 0.94 c0 0 0 0.1 0.02 0.28 c0 0 -0.02 0.18 -0.02 0.36 c0 0.2 0 0.46 0.02 0.54 c-0.02 0.04 -0.02 0.08 -0.02 0.12 c0 0.1 0.02 0.32 0.02 0.46 c-0.02 0.02 -0.02 0.06 -0.02 0.12 c0 0.14 0.02 0.36 0.02 0.5 c0 0.26 -0.02 0.26 -0.02 0.4 s0 0.26 0.08 0.4 c0 0.14 0 0.14 -0.02 0.2 l0.02 0.08 c0 0.24 0.02 0.36 -0.02 0.4 c0.06 1.82 0.42 3.14 0.72 3.28 c0 0.14 -0.16 0.1 0.72 0.98 c0 0 0.42 0.48 0.88 0.48 l-0.02 -0.02 c0.02 0 0.24 0.2 0.86 0.2 c1.52 0 1.64 0.04 2.02 -0.34 c0.12 -0.1 0.5 -0.14 0.56 -0.16 c0.34 -0.54 0.36 -0.24 0.56 -0.56 c-0.04 -0.12 0.46 -0.46 0.72 -0.8 c0 0 0.1 -0.62 0.38 -0.88 l-0.02 0.02 l0 -0.02 c0 -0.06 0.4 -0.8 0.48 -0.86 c0 0.04 0 0.04 0.02 0.04 s0.1 -0.7 0.48 -0.7 c0.02 0.02 0.04 0.02 0.04 0.02 c0.06 0 0.08 -0.04 0.16 -0.04 c0.06 0 0.16 0.04 0.36 0.22 c0 1.22 -0.12 1.74 -0.12 2.44 c0 0.1 0.02 0.18 0.02 0.22 l-0.02 1.38 c-0.04 0.16 -0.04 0.44 -0.34 0.44 c-0.94 0 -0.1 -0.04 -1.26 -0.52 c-0.08 0 -0.36 0.14 -0.52 0.14 c0 -0.02 -0.02 -0.02 -0.04 -0.02 c-0.1 0 -0.36 0.38 -0.56 0.38 c0.04 0 -1.18 0.02 -1.44 0.24 c-0.18 0 -0.34 -0.04 -0.56 -0.04 c0 0.08 -0.5 0 -0.48 0.08 c-0.86 0 -1.16 -0.24 -1.62 -0.24 c-0.22 0 -0.54 -0.02 -0.54 -0.18 z M115.84 19.98 c-0.02 0 -0.04 0.02 -0.04 0.04 s0.02 0.04 0.04 0.04 l0 -0.08 z M115.8 19.94 c-0.02 0 -0.04 0.02 -0.04 0.04 s0.02 0.04 0.04 0.04 s0.02 -0.02 0.02 -0.04 s0 -0.04 -0.02 -0.04 z M114 19.92 l0.06 0.02 l0.02 -0.02 l-0.08 0 z M113.6 19.82 c-0.02 0 -0.02 0.02 -0.02 0.04 s0 0.04 0.02 0.04 s0.02 -0.02 0.02 -0.04 s0 -0.04 -0.02 -0.04 z M112.96 19.6 l0 0.04 l0.02 0 z M120 19.54 c-0.02 0 -0.02 0.02 -0.02 0.02 l0.04 0 c0 0.02 0 -0.02 -0.02 -0.02 z M120.12 17.2 c0 0 0 -0.02 -0.02 -0.02 c0 0 -0.04 0.02 -0.04 0.04 c0.06 0 0.06 0 0.06 -0.02 z M120.16 17.12 c0 -0.02 -0.02 -0.02 -0.02 -0.02 c-0.02 0 -0.02 0 -0.02 0.02 s0 0.04 0.02 0.04 c0 0 0.02 -0.02 0.02 -0.04 z M109.17999999999999 16.22 c-0.02 -0.02 -0.08 0.04 -0.08 0.1 c0.1 0 0.08 -0.02 0.08 -0.1 z M120.2 15.52 c0 0.02 -0.02 0.04 -0.02 0.08 s0.02 0.08 0.06 0.08 l0.04 -0.04 c0 -0.06 0.02 -0.12 -0.08 -0.12 z M119.72 15.52 c0 0 0.04 0.1 0.08 0.12 c0 -0.06 0 -0.16 0.2 -0.16 c-0.02 -0.02 -0.02 -0.04 -0.06 -0.04 c-0.1 0 -0.14 0.08 -0.22 0.08 z M108.78 15.059999999999999 l0.04 -0.02 z M108.46 14.18 c-0.06 0 -0.04 0.16 -0.04 0.2 s0 0.04 0.02 0.04 c0.04 0 0.08 -0.02 0.08 -0.04 l0 -0.16 s-0.04 -0.04 -0.06 -0.04 z M108.36 13.98 c0.04 0 0.02 0.04 0.12 0.04 c0 0 0.02 0 0.08 -0.02 c-0.04 -0.02 -0.16 -0.02 -0.2 -0.02 z M108.42 12.379999999999999 c0 -0.02 0 -0.02 -0.02 -0.02 l0 0.06 c0.02 0 0.02 -0.02 0.02 -0.04 z M108.39999999999999 11.52 l0.02 0.04 c0.04 -0.02 0.06 -0.02 0.06 -0.08 z M108.67999999999999 10.26 c-0.1 0 -0.1 0.06 -0.1 0.08 c0.06 -0.02 0.12 -0.04 0.14 -0.08 l-0.04 0 z M108.74 10.02 c-0.02 0 -0.02 0 -0.02 0.02 c0 0 0 0.02 0.02 0.02 s0.02 -0.02 0.02 -0.02 c0 -0.02 0 -0.02 -0.02 -0.02 z M108.74 9.78 c-0.02 0 -0.02 0.02 -0.02 0.04 s0 0.02 0.02 0.02 s0.02 0 0.02 -0.02 s0 -0.04 -0.02 -0.04 z M110.61999999999999 6.84 c-0.02 0 -0.02 0.02 -0.02 0.02 c0 0.04 0.06 0.12 0.1 0.12 l0 -0.22 c-0.08 0 -0.08 0.02 -0.08 0.08 z M118.78 6.779999999999999 c-0.02 0 -0.02 0.02 -0.02 0.04 c0 0 0 0.02 0.02 0.02 s0.02 -0.02 0.02 -0.02 c0 -0.02 0 -0.04 -0.02 -0.04 z M119.92 5.619999999999999 l0.04 0.04 l0 -0.04 l-0.04 0 z M112.89999999999999 5.16 c-0.08 0.04 -0.06 0.08 -0.06 0.12 c0.08 -0.02 0.06 -0.06 0.06 -0.12 z M113.3 5.199999999999999 c0 0.04 0 0.06 0.02 0.06 l0.02 -0.02 l0 -0.04 l-0.04 0 z M113.53999999999999 5.24 c0 -0.02 -0.02 -0.02 -0.02 -0.02 c-0.02 0 -0.02 0 -0.02 0.02 s0 0.04 0.02 0.04 c0 0 0.02 -0.02 0.02 -0.04 z M113.17999999999999 5.08 c-0.02 0 -0.04 0.02 -0.04 0.04 s0.02 0.04 0.04 0.04 s0.02 -0.02 0.02 -0.04 s0 -0.04 -0.02 -0.04 z M116.28 4.84 c0.02 0.06 0.04 0.1 0.1 0.12 c-0.02 0 0 -0.12 -0.02 -0.14 c-0.06 0 -0.06 0.02 -0.08 0.02 z M113.58 4.84 l0 0.04 l0.02 0 z M113.7 4.82 c-0.02 0 -0.02 0.02 -0.02 0.04 c0 0 0 0.02 0.02 0.02 s0.02 -0.02 0.02 -0.02 c0 -0.02 0 -0.04 -0.02 -0.04 z M114 4.82 l0 0.02 l0.12 0 z"/></g><g id="SvgjsG1016" featureKey="EI8VXn-1" transform="matrix(5.009841086895438,0,0,5.009841086895438,-2.5049191997036266,277.45375023602116)" fill="#fff"><path d="M2.44 19.42 c-0.18 0 -0.28 0.04 -0.4 0.06 c-0.18 0 -0.14 0 -0.16 -0.02 l-0.06 0.02 c0 0.06 0.02 0.06 0.06 0.08 c0 -0.02 -0.06 0.04 -0.1 0.12 l0.02 0 c0 0.02 -0.64 0.52 -0.74 0.52 c-0.46 0 -0.46 -0.54 -0.46 -0.62 c0 -0.04 0 -0.04 0.02 -0.1 c0 -2.24 -0.1 -1.9 -0.1 -3.24 c0 0 0.02 -0.02 0.02 -0.04 c0 -0.06 -0.04 -0.16 -0.04 -0.26 c0 -0.18 0.08 -0.3 0.6 -0.3 c0.06 0 0.14 0.06 0.32 0.38 c0 0.1 0.36 0.4 0.4 0.58 c-0.02 0.02 -0.04 0.04 -0.04 0.06 c0 0.08 0.3 0.2 0.3 0.32 c0 0.02 -0.02 0.04 -0.02 0.04 c0 0.12 0.2 0.22 0.2 0.28 c0.24 0.44 0.26 0.42 0.58 0.74 c0.1 0 0.84 1.32 1.4 1.32 c0.72 0.06 0.86 0.32 1.62 0.32 c0.42 0 0.36 -0.02 0.5 -0.1 c-0.04 0.04 -0.02 0.04 -0.04 0.04 c0 0 0.14 -0.2 0.8 -0.2 c0.3 0 0.88 -0.56 1 -0.64 c0.04 -0.04 0.24 -0.12 0.24 -0.16 c0 -0.12 0.42 -0.7 0.48 -0.76 c-0.02 -0.04 -0.02 -0.08 -0.02 -0.1 c0 -0.3 0.32 0.16 0.32 -1.7 c-0.02 -0.06 -0.08 -0.7 -0.22 -0.82 c-0.06 0 -0.06 -0.46 -0.54 -0.78 c0 -0.02 0.02 -0.12 0.02 -0.16 c-0.78 -0.04 -0.38 -0.44 -0.9 -0.44 c-0.98 0 -0.2 -0.3 -1.26 -0.3 c-0.1 -0.1 -0.98 -0.08 -1.18 -0.2 c-0.04 0 -0.18 0.04 -0.22 0.04 c-0.24 0 -0.04 -0.2 -0.58 -0.2 c-1.82 -0.1 -0.84 -0.44 -1.46 -0.44 l0 -0.04 c0.06 0 0.14 -0.02 0.2 0.04 c0 0 0.1 -0.04 0.1 -0.06 c0 0 -0.04 -0.04 -0.04 -0.06 l-0.62 0 c-0.2 -0.18 -0.18 -0.3 -0.34 -0.34 c0 -0.02 -0.22 0.02 -0.56 -0.44 c0 -0.14 -0.44 -0.66 -0.54 -0.74 c-0.18 -0.94 -0.4 -1.5 -0.4 -2.22 c0.04 -0.22 0 -0.5 0.08 -0.64 l0 0.02 c0.02 0 0.1 -0.68 0.16 -0.64 c-0.02 0 -0.04 -0.02 -0.04 -0.04 c0 -0.16 0.42 -0.6 0.42 -0.76 c-0.02 -0.02 -0.02 -0.04 -0.02 -0.04 c0 -0.14 0.32 -0.28 0.32 -0.34 s0.26 -0.48 0.38 -0.56 c-0.02 0.02 -0.02 0.04 -0.02 0.04 c-0.02 0 0.98 -0.66 1 -0.68 c1.22 -0.2 0.16 -0.54 1.52 -0.54 l1.96 0 c0.04 0 0.46 0 0.66 0.16 c0.82 0.04 0.68 0.52 1.04 0.52 c0.66 0 0.48 -0.04 0.68 -0.24 c-0.08 -0.1 0.54 -0.02 0.6 -0.28 l0.26 0 c0.04 0 0.2 0.16 0.22 0.2 c0.06 2.48 0.18 2.42 0.18 3.72 c0 0.1 -0.18 0.16 -0.26 0.32 l-0.28 0 l0 -0.08 c-0.06 0 -0.48 -0.28 -0.48 -0.5 l0 0.02 c-0.02 0 -0.16 -0.5 -0.38 -0.58 l0.02 0 c0 -0.06 -0.26 -0.26 -0.26 -0.4 c-0.3 -0.44 -0.26 -0.42 -0.5 -0.66 l0.02 0 c0 -0.02 -0.5 -0.32 -0.5 -0.46 c0 -0.3 -0.74 -0.66 -0.9 -0.82 c0.06 -0.12 -0.52 -0.28 -1.1 -0.28 c-0.02 0 -0.04 0.02 -0.06 0.02 c-0.2 0 -0.12 -0.34 -0.18 -0.34 c-0.04 0.04 -0.06 0.04 -0.08 0.08 c-0.02 0 -0.1 -0.02 -0.16 -0.04 c-0.12 0.44 -0.32 0.2 -0.38 0.32 c-0.12 -0.06 -0.04 -0.12 -0.12 -0.14 c-0.42 0.2 -0.3 0.18 -1.22 0.64 c-0.6 1.18 -0.28 -0.28 -0.94 1.52 l0 0.88 l0 -0.02 c0.02 0 0.1 0.78 0.28 0.88 c0.04 0.06 0.3 0.26 0.38 0.42 c0.14 0 0.32 0.52 0.9 0.52 c0.24 0.26 1.18 0.2 2.14 0.44 c0.28 0.08 1.74 0.08 2.08 0.48 l-0.02 0 c0 0.04 0.48 0.08 0.56 0.14 c0 -0.04 0.96 0.56 0.96 0.68 c0 0.02 0 0.02 -0.02 0.02 c0.34 0 0.68 0.76 0.82 0.86 c0.1 0.72 0.38 0.5 0.38 1.06 c0.24 0.76 0.2 0.94 0.2 1.88 c-0.06 0.06 -0.1 0.76 -0.2 0.8 c0 1.02 -0.52 0.96 -0.52 1.4 l-0.26 0.24 c0 0.04 -0.02 0.12 -0.02 0.12 c-0.4 0.36 -0.26 0.42 -0.44 0.5 c-0.06 0 -0.16 0.3 -0.5 0.4 c-0.38 0.58 -0.54 0.12 -0.94 0.7 c-1.8 0 0.04 0.44 -1.96 0.44 c-2.28 0 -1.48 -0.06 -2.22 -0.24 c-0.02 0 -0.02 0.02 -0.04 0.02 c-0.12 0 -0.3 -0.16 -0.46 -0.16 c0 -0.02 -0.3 -0.06 -0.3 -0.1 c0 0.02 0.02 0.02 0.02 0.02 c0 -0.02 -0.28 -0.42 -0.5 -0.42 c-0.04 0 -0.08 0.02 -0.12 0.04 z M6.24 20.14 c-0.02 0 -0.02 0.02 -0.02 0.04 c0 0 0 0.02 0.02 0.02 s0.02 -0.02 0.02 -0.02 c0 -0.02 0 -0.04 -0.02 -0.04 z M4.74 20.1 c-0.02 0 -0.02 0.02 -0.02 0.02 c0 0.02 0 0.02 0.02 0.02 s0.02 0 0.02 -0.02 c0 0 0 -0.02 -0.02 -0.02 z M6.64 20.1 c-0.02 0 -0.04 0.02 -0.04 0.04 s0.02 0.04 0.04 0.04 s0.02 -0.02 0.02 -0.04 s0 -0.04 -0.02 -0.04 z M6.2 20.06 c-0.02 0 -0.04 0.02 -0.04 0.04 s0.02 0.04 0.04 0.04 s0.02 -0.02 0.02 -0.04 s0 -0.04 -0.02 -0.04 z M6.64 20.02 c-0.04 0 -0.06 0 -0.06 0.02 l0.02 0.02 l0.04 0 l0 -0.04 z M5.18 20.02 c-0.02 0 -0.02 0 -0.02 0.02 c0 0 0 0.02 0.02 0.02 s0.02 -0.02 0.02 -0.02 c0 -0.02 0 -0.02 -0.02 -0.02 z M6.64 19.88 l0 0.1 c0.04 -0.02 0.08 -0.06 0.1 -0.1 l-0.1 0 z M7.18 19.82 c-0.18 0 -0.18 0.06 -0.18 0.12 c0.02 0 0.06 -0.02 0.1 -0.04 c0.02 0 0.08 0.02 0.12 0.04 l0.08 -0.04 s0 -0.08 -0.12 -0.08 z M4.8 19.84 l0 0.04 l0.08 0 l0 -0.04 l-0.08 0 z M5.8 19.84 c-0.02 0 -0.02 0.02 -0.02 0.04 c0 0 0 0.02 0.02 0.02 s0.02 -0.02 0.02 -0.02 c0 -0.02 0 -0.04 -0.02 -0.04 z M6.36 19.84 c-0.02 0 -0.04 0.02 -0.04 0.04 c0 0 0.02 0.02 0.04 0.02 s0.02 -0.02 0.02 -0.02 c0 -0.02 0 -0.04 -0.02 -0.04 z M4.52 19.72 c-0.02 0 -0.04 0 -0.04 0.02 l0.04 0 l0.02 0 c0 -0.02 0 -0.02 -0.02 -0.02 z M3.9 19.66 c-0.02 0 -0.04 0 -0.06 0.02 z M3.84 19.58 c-0.02 0 -0.04 0.02 -0.04 0.04 s0.02 0.04 0.04 0.04 s0.02 -0.02 0.02 -0.04 s0 -0.04 -0.02 -0.04 z M3.9 19.56 c-0.02 0 -0.02 0.02 -0.02 0.04 c0 0 0 0.02 0.02 0.02 s0.02 -0.02 0.02 -0.02 c0 -0.02 0 -0.04 -0.02 -0.04 z M1.04 19.52 c-0.02 0 -0.04 0.02 -0.04 0.04 c0 0 0.02 0.02 0.04 0.02 l0.02 -0.02 c0 -0.02 -0.02 -0.04 -0.02 -0.04 z M3.84 19.52 c-0.02 0 -0.04 0.02 -0.04 0.04 c0 0 0.02 0.02 0.04 0.02 s0.02 -0.02 0.02 -0.02 c0 -0.02 0 -0.04 -0.02 -0.04 z M0.76 19.46 c-0.02 0 -0.04 0.02 -0.04 0.02 c0 0.02 0.02 0.04 0.04 0.04 c0 0 0.02 -0.02 0.02 -0.04 z M4 19.48 l-0.04 0 c0 0.02 0 0.04 0.02 0.04 c0 0 0.02 -0.02 0.02 -0.04 z M7.92 19.46 c-0.02 0 -0.02 0.02 -0.02 0.02 l0.04 0 c0 0.02 0 -0.02 -0.02 -0.02 z M0.76 19.12 l0 -0.08 l0 0.08 z M8.84 19.08 c-0.02 0 -0.04 0.02 -0.04 0.04 l0.06 0 c0 -0.02 -0.02 -0.04 -0.02 -0.04 z M9.12 18.84 l0 0.04 l0.02 0 z M9.06 18.78 c-0.02 0 -0.04 0.02 -0.04 0.04 c0 0 0.02 0.02 0.04 0.02 s0.02 -0.02 0.02 -0.02 c0 -0.02 0 -0.04 -0.02 -0.04 z M9.18 18.8 l0.04 -0.02 z M9.3 18.68 l0 0 l-0.04 0.04 c0.02 -0.02 0.02 -0.04 0.04 -0.04 z M0.82 18.66 c-0.02 0 -0.04 0 -0.04 0.02 c0 0 0.04 0 0.04 -0.02 l0 0 z M0.76 18.46 l0 0.12 l0.02 0 c0 -0.02 0 -0.1 -0.02 -0.12 z M9.92 18.02 c-0.02 0 -0.02 0.02 -0.02 0.02 s0 0.02 0.02 0.02 s0.02 -0.02 0.02 -0.02 s0 -0.02 -0.02 -0.02 z M9.3 16.38 l0.04 0.02 l0.04 -0.02 l-0.08 0 z M0.76 16.06 l-0.04 0 c0 0.02 0 0.04 0.02 0.04 c0 0 0.02 -0.02 0.02 -0.04 z M10.72 15.719999999999999 l0 -0.02 c-0.02 0 -0.02 0 -0.02 0.02 s0 0.04 0.02 0.04 l0 -0.04 z M2.32 12.34 c-0.02 0 -0.04 0.02 -0.04 0.04 s0.02 0.04 0.04 0.04 s0.02 -0.02 0.02 -0.04 s0 -0.04 -0.02 -0.04 z M1.5 11.48 c-0.02 0 -0.04 0.02 -0.04 0.04 c0 0 0.02 0.02 0.04 0.02 l0.02 -0.02 c0 -0.02 -0.02 -0.04 -0.02 -0.04 z M7.92 11.28 c-0.02 0 -0.02 0.02 -0.02 0.04 c0 0 0 0.02 0.02 0.02 s0.02 -0.02 0.02 -0.02 c0 -0.02 0 -0.04 -0.02 -0.04 z M1.26 11.2 l0 0.04 l0.04 -0.04 l-0.04 0 z M3.16 11.02 c0 0 -0.02 0 -0.02 0.02 l0.04 0 c0 -0.02 -0.02 -0.02 -0.02 -0.02 z M5.14 10.76 c-0.04 0 -0.14 0.04 -0.14 0.06 s0.02 0.02 0.02 0.02 c0.04 0 0.08 -0.04 0.12 -0.08 z M0.88 10.18 c-0.02 0 -0.04 -0.02 -0.04 0.1 c0 0.02 0.02 0.06 0.02 0.06 c0.02 0 0.04 -0.04 0.04 -0.06 c0 -0.04 -0.02 -0.08 -0.02 -0.1 z M0.82 9.98 c-0.02 0 -0.04 0.02 -0.04 0.04 s0.02 0.04 0.04 0.04 l0 -0.08 z M9.38 6.460000000000001 c-0.02 0 -0.04 0.02 -0.04 0.04 c0 0 0.02 0.02 0.04 0.02 s0.02 -0.02 0.02 -0.02 c0 -0.02 0 -0.04 -0.02 -0.04 z M9.66 6.460000000000001 c-0.02 0 -0.02 0.02 -0.02 0.04 c0 0 0 0.02 0.02 0.02 s0.02 -0.02 0.02 -0.02 c0 -0.02 0 -0.04 -0.02 -0.04 z M9.74 6.460000000000001 c-0.02 0 -0.04 0.02 -0.04 0.04 c0 0 0.02 0.02 0.04 0.02 l0.02 -0.02 c0 -0.02 -0.02 -0.04 -0.02 -0.04 z M5.26 6.02 l0 -0.22 c0.02 -0.02 0.06 -0.04 0.08 -0.06 l0.04 0.04 c0 0.06 -0.08 0.16 -0.08 0.28 z M9.66 5.9399999999999995 c-0.02 0 -0.02 0.02 -0.02 0.04 c0 0 0 0.02 0.02 0.02 s0.02 -0.02 0.02 -0.02 c0 -0.02 0 -0.04 -0.02 -0.04 z M3.1 5.84 c-0.1 0.02 -0.1 0.1 -0.1 0.1 c0.02 -0.02 0.1 -0.06 0.1 -0.08 l0 -0.02 z M2.62 5.74 c0 0.04 0.06 0.06 0.1 0.06 c-0.02 -0.06 -0.1 -0.06 -0.12 -0.06 l0.02 0 z M9.58 5.779999999999999 c0.02 0.02 0.04 0.02 0.06 0.02 c0.08 0 0.1 -0.06 0.1 -0.12 z M2.94 5.619999999999999 c-0.06 0 -0.04 0.06 -0.04 0.12 l0.04 0 l0 -0.12 z M6.9 5.4399999999999995 c-0.06 0.1 -0.04 0.18 -0.04 0.26 c0.08 -0.02 0.1 -0.12 0.1 -0.22 c-0.02 -0.02 -0.02 -0.04 -0.06 -0.04 z M2.94 5.52 c-0.02 0 -0.04 0 -0.04 0.02 l0.04 0 l0.02 0 c0 -0.02 0 -0.02 -0.02 -0.02 z M9.38 5.48 c0 -0.02 -0.02 -0.02 -0.06 -0.02 c-0.02 0 -0.04 0 -0.04 0.02 s0.02 0.04 0.04 0.04 c0.04 0 0.06 -0.02 0.06 -0.04 z M9.46 5.42 c-0.02 0 -0.04 0.02 -0.04 0.02 l0.02 0 l0.02 0 l0 -0.02 z M7.48 5.42 l-0.02 -0.02 z M6.24 5.4 c0 -0.02 -0.02 -0.02 -0.02 -0.02 s-0.02 0 -0.02 0.02 s0.02 0.02 0.02 0.02 s0.02 0 0.02 -0.02 z M8.96 5.4 c0 -0.02 -0.02 -0.02 -0.02 -0.02 c-0.02 0 -0.02 0 -0.02 0.02 s0 0.02 0.02 0.02 c0 0 0.02 0 0.02 -0.02 z M9.22 5.359999999999999 c-0.02 0 -0.04 0.02 -0.04 0.04 c0 0 0.02 0.02 0.04 0.02 s0.02 -0.02 0.02 -0.02 c0 -0.02 0 -0.04 -0.02 -0.04 z M9.66 5.32 l0 0.08 l0.04 -0.04 z M3.58 5.16 c0 0.06 0.04 0.14 0.04 0.2 l0.04 -0.1 s-0.02 -0.08 -0.04 -0.14 z M7.1 5.24 c-0.02 0 -0.04 0.02 -0.04 0.02 s0.02 0.02 0.04 0.02 s0.02 -0.02 0.02 -0.02 s0 -0.02 -0.02 -0.02 z M9.28 5.119999999999999 c-0.06 0.02 -0.08 0.08 -0.1 0.14 c0.12 0 0.1 -0.06 0.1 -0.14 z M9.66 5.24 l0 0.02 l0.04 0 z M9.66 5.119999999999999 c-0.02 0 -0.02 0.02 -0.02 0.02 c0 0.02 0 0.02 0.02 0.02 s0.02 0 0.02 -0.02 c0 0 0 -0.02 -0.02 -0.02 z M5.48 5.039999999999999 c-0.02 0.06 0.1 0.08 0.1 0.08 c0.04 -0.06 0.24 0.02 0.22 -0.08 l-0.32 0 z M6.74 5.08 l-0.04 0 c0 0.02 0 0.04 0.02 0.04 c0 0 0.02 -0.02 0.02 -0.04 z M4.36 5 l0 0.04 l0.08 0 l0 -0.04 l-0.08 0 z M4.74 4.960000000000001 c-0.06 0 -0.14 0.06 -0.16 0.08 l0.16 0 l0 -0.08 z M6.24 5 l0 0.04 l0.12 0 z M11.520000000000001 19.72 l0 -0.1 l0.24 -0.24 l0.98 0 l0.08 0.04 l0.46 0.04 c0.08 0.04 0.18 -0.26 0.24 -0.26 l0 -2.42 c0 -0.02 -0.04 -0.26 -0.04 -0.28 c0 0 0.04 -0.48 0.04 -0.58 c0.04 -0.06 -0.06 0.08 -0.06 -0.32 c0 -0.04 0.06 -0.08 0.06 -0.16 c0 -0.14 -0.04 -0.22 -0.04 -0.32 c0 -0.04 0.04 -0.18 0.04 -0.26 l0 -1.26 c0 -0.18 -0.06 -0.5 -0.06 -0.74 l0.02 -1.72 c-0.02 -0.08 -0.02 -0.6 -0.02 -0.7 c0 -0.06 0.02 -0.52 0.02 -0.58 c0 -0.02 -0.02 -1.04 -0.02 -1.16 c0 -1.24 0.02 -1.46 0.02 -2 c0 -0.24 0 -0.76 -0.02 -0.92 l-0.12 -0.14 s-0.4 -0.02 -0.56 -0.02 c-0.26 0 -0.46 0.06 -0.7 0.06 c-0.22 -0.04 -0.44 0.12 -0.64 -0.34 c0 -0.18 0.04 -0.4 0.22 -0.44 c4.08 0 4.5 0.04 6.12 0.04 c3.88 0 3.66 -0.04 5.28 -0.04 c0.2 0 0.42 3.66 0.42 3.84 c0 0.02 0.02 0.02 0.02 0.04 c0 0.24 -0.36 0.42 -0.48 0.42 c-0.26 0 -0.4 -0.28 -0.48 -0.6 c0.08 0 -0.86 -1.54 -0.82 -1.46 c-0.26 -0.26 -0.28 -0.3 -0.44 -0.5 c0 -0.18 -0.86 -0.58 -0.96 -0.72 c0 0.02 -0.02 0.02 -0.02 0.02 c-0.06 0 -0.12 -0.24 -0.54 -0.24 c-0.56 0 -0.52 -0.08 -1.38 -0.08 l0 -0.04 l-0.62 0 l-0.04 0.04 l-0.26 0 l0.14 -0.04 c-0.46 0 -0.66 -0.06 -0.78 -0.06 c-0.18 0 -0.4 0.1 -0.4 0.68 c0 1.12 0.04 1.72 0.04 2 c0 0.3 -0.04 1.18 -0.04 1.3 c0 0.34 0.08 0.62 0.08 0.86 c-0.04 0 -0.08 0.14 -0.08 0.2 s0.08 0.44 0.08 0.62 c0 0.04 -0.04 0.1 -0.04 0.12 c0 0.06 -0.06 0.82 0.14 0.82 c0.46 0 0.8 -0.12 1.16 -0.12 l0 0.02 c0.06 0 0.24 -0.3 0.38 -0.3 c0.24 0 0.28 -0.08 0.54 -0.34 l0 0.02 c-0.02 0 0.34 -0.72 0.54 -0.96 c0.34 -0.16 -0.12 -1 0.88 -1 l0.06 0.04 c0 0.18 0.1 0.24 0.1 0.8 c-0.02 0.16 -0.04 0.68 -0.04 0.64 c0 0.22 0.04 0.56 0.04 0.84 c0 0.24 0 0.24 -0.04 0.36 c0 0.2 0.04 0.46 0.04 0.52 c0 0.26 -0.04 0.26 -0.04 0.46 c0 0.16 0.04 1.24 0.04 1.38 c0 0.08 -0.04 0.16 -0.04 0.28 l0 0.74 c0.02 0.02 -0.16 0.16 -0.26 0.16 c-0.64 0 -0.1 -0.12 -0.82 -1.42 c-0.56 -0.98 -0.74 -0.94 -1.06 -1.22 c0.02 0 -0.58 -0.2 -0.72 -0.2 l-0.06 -0.1 l-0.64 -0.02 c-0.3 0.16 -0.26 1 -0.26 0.68 c0 0.08 0.06 0.28 0.06 0.58 c0 0.14 -0.02 0.38 -0.06 0.6 c0 0.02 0.06 0.2 0.06 0.32 c0 0.2 -0.04 0.18 -0.04 0.26 c0 0.14 0.04 0.22 0.04 0.28 c-0.06 0.78 -0.08 2.18 -0.08 2.42 c0 1.26 -0.02 1.36 0.28 1.66 l0.86 0 c0.08 -0.02 0.18 -0.08 0.26 -0.08 c0.02 0 1.2 0.04 1.36 0.04 s0.02 -0.1 0.44 -0.1 c0.76 -0.3 0.72 -0.04 1.36 -0.54 c-0.02 0 -0.02 -0.02 -0.02 -0.02 c0 -0.06 0.5 -0.28 0.76 -0.6 c-0.02 0 -0.02 -0.02 -0.02 -0.02 c0 -0.3 0.88 -0.52 0.88 -1.24 c0 -0.08 0.36 -0.54 0.36 -0.66 c0.5 -1.26 0.18 -1.2 0.82 -1.2 c0.02 0 0.24 0 0.24 0.26 c0 1.3 -0.2 2.9 -0.2 3.8 c0 0.14 0.02 0.28 0.02 0.42 c0 0.24 -0.08 0.44 -0.56 0.44 l-7.7 0 c-1.16 0 -1.58 0.04 -3.72 0.04 c-0.38 -0.12 -0.28 -0.28 -0.28 -0.32 z M11.72 19.8 l0 -0.02 l0 0.06 c0 0.06 0.02 0.14 0.2 0.14 c0.04 0 0.1 0 0.16 -0.02 l0 -0.04 l-0.16 -0.18 c-0.02 0.04 -0.04 0.08 -0.08 0.1 c-0.02 0 -0.08 -0.02 -0.12 -0.06 l0 0.02 z M18.82 19.88 l0.02 0.04 c0.02 -0.02 0.02 -0.02 0.02 -0.08 z M18.04 19.84 c-0.06 0 -0.08 0 -0.1 0.04 l0.1 0 l0 -0.04 z M12.420000000000002 19.62 c0.04 0 0.12 0.04 0.14 0.04 c0.18 0 0.12 0 0.18 -0.04 c-0.04 0 -0.18 -0.04 -0.2 -0.04 c-0.08 0 -0.08 0 -0.12 0.04 z M23.4 19.62 c0.02 0.06 0.08 0.04 0.12 0.04 c-0.02 -0.04 -0.06 -0.04 -0.12 -0.04 z M13.96 19.62 c0 -0.02 -0.02 -0.02 -0.04 -0.02 s-0.04 0 -0.04 0.02 s0.02 0.04 0.04 0.04 s0.04 -0.02 0.04 -0.04 z M11.840000000000002 19.56 l0 0.02 l0.2 0 c-0.04 -0.02 -0.16 -0.02 -0.2 -0.02 z M13.680000000000001 16.9 l-0.02 -0.02 c-0.02 0 -0.02 0.02 -0.02 0.02 c0 0.02 0 0.04 0.02 0.04 c0 0 0.02 -0.02 0.02 -0.04 z M13.64 16.04 l0 0.08 c0.02 0 0.02 -0.02 0.02 -0.04 s0 -0.04 -0.02 -0.04 z M13.680000000000001 15.92 c0.02 0.04 0.06 0.04 0.12 0.04 c0 -0.04 0.02 -0.16 -0.04 -0.2 c0 0.04 -0.08 0.1 -0.08 0.16 z M13.8 15.54 c0 0.02 0 0.04 0.02 0.06 l0.02 -0.06 l-0.04 0 z M23.8 15.54 c-0.02 0 -0.04 0.02 -0.04 0.04 c0 0 0.02 0.02 0.04 0.02 s0.02 -0.02 0.02 -0.02 c0 -0.02 0 -0.04 -0.02 -0.04 z M23.9 15.5 c-0.02 0 -0.02 0.02 -0.02 0.04 c0 0 0 0.02 0.02 0.02 l0 -0.06 z M13.680000000000001 12.48 c-0.02 0 -0.04 0.02 -0.04 0.04 c0 0 0.02 0.02 0.04 0.02 s0.02 -0.02 0.02 -0.02 c0 -0.02 0 -0.04 -0.02 -0.04 z M13.82 12.48 c0 -0.02 0 -0.02 -0.02 -0.02 l0 0.04 c0.02 0 0.02 0 0.02 -0.02 z M13.680000000000001 11.6 l-0.02 -0.02 c-0.02 0 -0.02 0.02 -0.02 0.02 c0 0.02 0 0.04 0.02 0.04 c0 0 0.02 -0.02 0.02 -0.04 z M20.060000000000002 9.92 c0 -0.02 -0.02 -0.02 -0.04 -0.02 c0 0 -0.02 0 -0.02 0.02 s0.02 0.04 0.02 0.04 c0.02 0 0.04 -0.02 0.04 -0.04 z M22.9 8.96 c-0.02 0 -0.04 0.02 -0.04 0.04 c0 0 0.02 0.02 0.04 0.02 s0.02 -0.02 0.02 -0.02 c0 -0.02 0 -0.04 -0.02 -0.04 z M15.940000000000001 7.960000000000001 c-0.02 0.02 -0.02 0.06 -0.02 0.08 l0.22 0 c-0.02 -0.04 -0.1 -0.08 -0.2 -0.08 z M13.64 7.18 l0 0.08 c0.02 0 0.02 -0.02 0.02 -0.04 s0 -0.04 -0.02 -0.04 z M13.64 6.16 l0 0.08 c0.02 0 0.02 -0.02 0.02 -0.04 s0 -0.04 -0.02 -0.04 z M23.1 5.42 l0 0.2 l0.02 -0.1 c0 -0.04 0 -0.06 -0.02 -0.1 z M12.940000000000001 5.539999999999999 c-0.02 0 -0.02 0.02 -0.02 0.04 s0 0.04 0.02 0.04 s0.02 -0.02 0.02 -0.04 s0 -0.04 -0.02 -0.04 z M14.620000000000001 5.58 c0 -0.02 -0.02 -0.02 -0.02 -0.02 c-0.02 0 -0.02 0 -0.02 0.02 s0 0.04 0.02 0.04 c0 0 0.02 -0.02 0.02 -0.04 z M12.38 5.380000000000001 c-0.18 0 -0.08 0.14 -0.14 0.16 c0.12 0 0.14 -0.02 0.14 -0.06 c0 -0.02 -0.02 -0.04 -0.02 -0.06 s0.02 -0.02 0.02 -0.04 z M12.860000000000001 5.48 l0.06 0.04 l0.02 -0.04 l-0.04 -0.02 z M11.98 5.42 c-0.02 0 -0.02 0.02 -0.02 0.04 c0 0 0 0.02 0.02 0.02 s0.02 -0.02 0.02 -0.02 c0 -0.02 0 -0.04 -0.02 -0.04 z M12.180000000000001 5.34 l-0.14 0.04 l0.14 0 l0 -0.04 z M13.96 5.34 c-0.02 0 -0.04 0.02 -0.04 0.02 c0 0.02 0.02 0.02 0.04 0.02 c0 0 0.02 0 0.02 -0.02 z M15.98 5.34 l0 0.04 l0.02 0 z M12.280000000000001 5.34 l-0.04 0 c0 0.02 0 0.04 0.02 0.04 c0 0 0.02 -0.02 0.02 -0.04 z M12.740000000000002 5.32 c-0.04 0 -0.04 0.04 -0.04 0.04 c0.02 0 0.02 -0.02 0.04 -0.04 z M13.600000000000001 5.34 l-0.04 0 c0 0.02 0 0.04 0.02 0.04 c0 0 0.02 -0.02 0.02 -0.04 z M16.86 5.32 c-0.04 0 -0.08 0.02 -0.12 0.02 l0.14 0 z M11.680000000000001 5.32 c0 0 0 -0.02 -0.02 -0.02 l0 0.04 c0.02 0 0.02 0 0.02 -0.02 z M17.72 5.26 c0 0.08 0.02 0.04 0.04 0.06 c0 0 0.02 0 0.04 -0.02 l-0.04 -0.08 z M23.020000000000003 5.0600000000000005 l0 0.24 l0.04 0 c0 -0.06 0.02 -0.24 -0.04 -0.24 z M12.500000000000002 5.1 c-0.02 0 -0.04 0.02 -0.04 0.02 c0 0.02 0.02 0.02 0.04 0.02 s0.02 0 0.02 -0.02 c0 0 0 -0.02 -0.02 -0.02 z M11.840000000000002 5.1 l-0.02 -0.04 z M12.080000000000002 5.02 c-0.04 0.02 -0.06 0.04 -0.06 0.06 l0.02 0.02 l0.04 0 l0 -0.08 z M24.82 19.82 l0 -0.1 c0.04 -0.04 -0.02 -0.38 0.42 -0.38 c0.34 0 0.4 0.02 0.58 0.02 c0.4 0 0.7 -0.02 0.76 -0.12 l0 -1.7 c0 -0.04 -0.02 -0.18 -0.02 -0.2 l-0.02 0.02 c-0.04 -0.04 0.04 0.18 0.04 -0.54 c0 -1.5 -0.02 -2.06 -0.02 -2.56 c0 -0.32 0 -0.94 0.04 -1.46 c0 -0.04 -0.08 -0.3 -0.08 -0.8 c0 -0.24 0.06 -0.24 0.06 -0.36 c0 -0.32 -0.02 -0.62 -0.02 -0.86 c0 -0.42 0.02 -0.74 0.02 -1.2 c0 -0.12 0.3 -0.1 0.36 -0.16 c0 0 0 -0.1 -0.18 -0.1 c0 0 -0.06 0 -0.12 0.08 c-0.02 0 -0.04 -0.02 -0.06 -0.08 l0 -3.38 c0 -0.26 -0.06 -0.42 -0.32 -0.42 c-0.38 0 -0.46 0.06 -1.14 0.06 c-0.54 0 -0.22 -0.08 -0.52 -0.26 c0 -0.48 1.5 -0.34 1.92 -0.4 l-0.06 0 c0 0.02 1.16 0.08 1.16 0.08 c0.04 0 0.08 0.02 0.12 0.02 c0.24 0 0.34 -0.1 0.52 -0.1 c0.08 0 0.16 0.02 0.26 0.02 c0.06 0 0.22 -0.02 0.32 -0.02 c0.24 0 0.96 0.02 1.18 0.02 c0.16 0 0.28 -0.06 0.6 -0.06 c0.1 0 1.84 0.04 2.06 0.04 c0.4 0 1.06 0.2 1.6 0.2 c0.76 0.08 0.3 0.18 1.06 0.36 c-0.02 0 -0.04 -0.02 -0.04 -0.02 c0 0.02 0.56 0.32 0.56 0.38 c0.24 0.06 0.6 0.56 0.78 0.72 l-0.02 -0.02 s0.54 0.76 0.54 1.44 c0 0.74 0 0.78 -0.16 1.28 c0 0.34 -0.46 0.94 -1.26 1.62 c-0.1 -0.04 -0.22 0.34 -0.58 0.34 c0.06 -0.2 -0.1 0.26 -0.66 0.3 c-0.02 -0.02 -0.04 -0.02 -0.04 -0.02 c-0.1 0 -0.24 0.18 -0.32 0.18 c-0.76 0.2 -1.1 0.12 -1.1 0.42 c0 0 -0.04 0.16 0.12 0.16 c0.22 -0.04 0.58 0.32 0.7 0.32 c0.42 0 0.5 0.38 0.84 0.38 c0.36 0.16 0.5 0.28 0.94 0.74 c0.44 1.3 0.78 0.6 0.78 1.58 c0 0.54 0.18 0.92 0.18 1.46 c0 0.08 -0.04 0.42 -0.04 1.12 c0.04 0.26 0.06 0.78 0.14 0.86 l0 -0.04 c0 0.02 -0.06 0.66 0.64 0.66 c0.48 0 0.7 -0.06 0.84 -0.06 c0 0 0.02 0.02 0.04 0.02 c0.04 0 0.14 -0.04 0.22 -0.04 s0.16 0.02 0.2 0.1 l-0.14 0 c0 0.1 0.06 0.1 0.06 0.14 c0.04 -0.02 0.06 -0.06 0.08 -0.06 l0.02 0 l0 0.26 c-0.06 0 -0.06 -0.06 -0.06 -0.14 c-0.04 0.02 -0.06 0.02 -0.16 0.06 c0 0.04 0.02 0.08 0.16 0.14 c-0.08 0.04 -0.1 0.14 -0.2 0.14 l0 -0.02 s-0.1 0.2 -0.7 0.2 c-0.22 0 -1.58 -0.08 -1.94 -0.1 c0 0.02 0 0.02 -0.02 0.02 c-0.16 0 -0.54 -0.4 -0.86 -0.4 l0.02 0 c0 -0.08 -0.9 -0.5 -0.92 -0.88 l0.02 0.02 c0 -0.02 -0.2 -0.2 -0.2 -0.26 c0 -0.04 0.02 -0.16 0.02 -0.28 c0 -0.06 -0.06 -0.06 -0.16 -0.1 c-0.14 -3.26 -0.44 -4.16 -0.74 -4.6 c-0.06 0.22 0.08 -0.24 -0.38 -0.46 c0 -0.14 -0.62 -0.36 -0.6 -0.44 c-0.04 0 -0.08 0.02 -0.1 0.02 c-0.42 0 -0.4 -0.4 -1.08 -0.4 l-1.08 0 c-0.22 0.46 -0.22 1.04 -0.22 1.32 c0 0.06 0 0.52 0.04 0.56 c0 0.02 -0.02 0.08 -0.06 0.28 c0 0.06 0.04 0.3 0.04 0.46 l0 -0.02 c0 0.12 -0.02 0.56 -0.02 0.7 c0 0.26 0.02 0.32 0.02 0.5 l0 2.32 c0 0.04 0.04 0.16 0.04 0.2 c0 0.06 -0.04 0.18 -0.04 0.26 c0 0.26 0.04 0.3 0.04 0.4 c-0.02 0.02 -0.04 0.02 -0.04 0.04 c0 0.06 0.28 0.1 0.82 0.1 c0.02 0 0.42 -0.04 0.44 -0.04 c0.56 0 0.56 0.04 0.68 0.2 c0 0.36 -0.08 0.42 -0.14 0.42 c-0.02 0 -0.04 -0.02 -0.08 -0.1 c-0.1 0 -0.12 0 -0.12 0.02 c0.16 0.18 -1.94 0.18 -2.16 0.18 l0.04 0 s-0.68 -0.02 -0.94 -0.08 c-0.8 0.08 -2.18 0 -2.74 0.2 c-0.24 0 -0.46 0 -0.46 -0.32 z M37.16 19.94 c-0.02 0 -0.04 0.02 -0.04 0.04 s0.02 0.04 0.04 0.04 c0 0 0.02 -0.02 0.02 -0.04 s-0.02 -0.04 -0.02 -0.04 z M37.7 19.76 c-0.14 0 -0.1 0.08 -0.16 0.18 c0 0 0.02 0.02 0.04 0.02 c0.06 0 0.12 -0.1 0.12 -0.2 z M25.86 19.88 c-0.04 0 -0.1 0 -0.14 0.02 c0.04 0 0.1 0 0.14 -0.02 z M25.9 19.88 l0 0.02 l0.04 0 z M26.62 19.9 l-0.02 -0.02 c-0.02 0 -0.02 0.02 -0.02 0.02 c0 0.02 0 0.04 0.02 0.04 c0 0 0.02 -0.02 0.02 -0.04 z M27 19.86 c-0.02 0.02 -0.04 0.02 -0.04 0.04 c0.02 0 0.06 0 0.08 -0.02 z M30.1 19.82 l0 0.06 l0.12 0 c-0.04 -0.04 -0.06 -0.06 -0.12 -0.06 z M30.88 19.86 c-0.02 0 -0.04 0.02 -0.04 0.02 s0.02 0.02 0.04 0.02 s0.02 -0.02 0.02 -0.02 s0 -0.02 -0.02 -0.02 z M37.78 19.7 c-0.02 0.06 0.08 0.16 0.08 0.18 c0.1 0 0.1 0 0.16 -0.02 c-0.06 -0.18 0 -0.22 -0.16 -0.3 c-0.06 0.04 -0.08 0.02 -0.08 0.14 z M29.82 19.82 l-0.04 0.04 l0.04 0 l0 -0.04 z M31.16 19.46 c0 0.18 0.12 0.18 0.12 0.32 l0.04 0 l0 -0.22 c-0.02 -0.04 -0.06 -0.08 -0.16 -0.1 z M25.16 19.5 l0 0.06 c0 -0.02 0.02 0.18 0.14 0.18 c0.02 0 0.06 -0.04 0.1 -0.08 c-0.02 0.02 -0.16 -0.16 -0.22 -0.16 l-0.02 0 z M25.5 19.7 c0 -0.02 -0.02 -0.02 -0.02 -0.02 c-0.02 0 -0.02 0 -0.02 0.02 c0 0 0 0.02 0.02 0.02 z M29.86 19.66 c-0.02 0 -0.02 0.02 -0.02 0.02 c0 0.02 0 0.02 0.02 0.02 s0.02 0 0.02 -0.02 c0 0 0 -0.02 -0.02 -0.02 z M30.48 19.6 l0 0.1 c0.04 -0.02 0.08 -0.04 0.1 -0.08 c-0.04 -0.02 -0.06 -0.02 -0.1 -0.02 z M25.16 19.36 c-0.02 0 -0.02 0.02 -0.02 0.04 s0 0.04 0.02 0.04 s0.02 -0.02 0.02 -0.04 s0 -0.04 -0.02 -0.04 z M34.38 18.84 c0.02 0.04 0.04 0.1 0.04 0.1 c0.02 0 0.02 0 0.02 -0.02 l0 -0.08 l-0.06 0 z M28.8 18.3 l0.08 0.04 c0.04 -0.02 0.04 -0.06 0.04 -0.1 c-0.06 0 -0.08 0.02 -0.12 0.06 z M33.54 17.5 c0.02 0 0.02 0.02 0.02 0.04 c0 0 0 0.02 -0.02 0.02 s-0.02 -0.02 -0.02 -0.02 c0 -0.02 0 -0.04 0.02 -0.04 z M33.78 17.48 c0.02 0.02 0.04 0.02 0.08 0.02 c-0.04 -0.02 -0.06 -0.02 -0.08 -0.02 z M26.84 15.4 c-0.02 0 -0.04 0.02 -0.04 0.04 s0.02 0.04 0.04 0.04 s0.02 -0.02 0.02 -0.04 s0 -0.04 -0.02 -0.04 z M26.68 14.879999999999999 c-0.02 0 -0.04 0.02 -0.04 0.04 s0.02 0.04 0.04 0.04 s0.02 -0.02 0.02 -0.04 s0 -0.04 -0.02 -0.04 z M33.36 12.48 c-0.02 0 -0.04 0.02 -0.04 0.02 c0 0.02 0.02 0.04 0.04 0.04 c0 0 0.02 -0.02 0.02 -0.04 z M28.58 12.14 l0 0.08 l0.02 0.02 c0.06 0 0.14 -0.08 0.14 -0.1 l-0.16 0 z M28.62 11.94 c0 0.02 -0.02 0.02 -0.02 0.02 c0 0.02 0.02 0.02 0.08 0.02 c0 0 0.02 0 0.06 -0.02 c-0.02 -0.06 0 -0.08 -0.06 -0.16 c-0.02 0 -0.08 0.12 -0.06 0.14 z M29.46 10.22 l0 1.02 c0 0.34 0.2 0.4 0.38 0.5 c3.18 -0.08 3.18 -0.52 3.48 -0.82 c-0.02 0 -0.02 -0.02 -0.02 -0.02 c0 -0.1 0.3 -0.3 0.3 -0.44 l-0.02 0 c0 -0.08 0.42 -0.74 0.42 -1.6 c0 -2.04 -0.56 -2.42 -0.64 -2.84 c0 -0.02 -0.6 -0.54 -1.3 -0.54 c-0.44 0 -0.54 0.04 -0.7 0.04 l-1.5 0 c-0.42 0 -0.26 0.2 -0.38 0.42 l0 1.58 l0.04 0.1 c0 0.78 -0.08 1.5 -0.08 2.2 c0 0.04 0 0.1 0.06 0.16 c0 0.04 -0.04 0.1 -0.04 0.24 z M26.84 9.78 c-0.02 0 -0.04 0.02 -0.04 0.02 l0.04 0 l0.02 0 s0 -0.02 -0.02 -0.02 z M26.78 9.68 c-0.02 0 -0.02 0.02 -0.02 0.04 c0 0 0 0.02 0.02 0.02 l0.02 -0.02 c0 -0.02 -0.02 -0.04 -0.02 -0.04 z M26.84 9.58 c-0.02 0 -0.04 0.02 -0.04 0.04 c0 0 0.02 0.02 0.04 0.02 s0.02 -0.02 0.02 -0.02 c0 -0.02 0 -0.04 -0.02 -0.04 z M26.68 8.42 l0 0.1 l0.04 0 c0 -0.04 0 -0.08 -0.04 -0.1 z M35.7 6.1 c0.02 0.04 0.08 0.04 0.1 0.04 l0 -0.12 c-0.06 0 -0.1 0 -0.1 0.08 z M34.18 5.42 c-0.02 0 -0.04 0.02 -0.04 0.04 s0.02 0.02 0.04 0.02 s0.02 0 0.02 -0.02 s0 -0.04 -0.02 -0.04 z M25.9 5.279999999999999 c0.04 0.02 0.08 0.02 0.12 0.02 l-0.08 -0.06 z M27.84 5.279999999999999 l0 -0.02 c-0.02 0 -0.02 0 -0.02 0.02 s0 0.02 0.02 0.02 l0 -0.02 z M32.519999999999996 5.24 l0.08 0.04 c0.1 0 0.1 -0.04 0.1 -0.14 c0 -0.02 -0.02 -0.02 -0.1 -0.02 c-0.04 0 -0.08 0 -0.08 0.12 z M30.48 5.119999999999999 c0 0.04 -0.02 0.12 0.04 0.12 c0.02 -0.02 0.04 -0.08 0.06 -0.12 l-0.1 0 z M33.28 5.199999999999999 c-0.02 0 -0.04 0.02 -0.04 0.02 c0 0.02 0.02 0.02 0.04 0.02 s0.02 0 0.02 -0.02 c0 0 0 -0.02 -0.02 -0.02 z M26.2 5.119999999999999 l0 0.04 c0 -0.02 0.06 0.04 0.1 -0.04 l-0.1 0 z M31.36 5.119999999999999 c-0.04 0 -0.06 0.02 -0.08 0.04 l0.08 0 l0 -0.04 z M24.82 5.119999999999999 l0.02 0 l0.48 0 l-0.5 0 z M39.2 19.68 c0.1 -0.28 0.16 -0.34 0.38 -0.34 c0.66 0 0.8 0.06 1.28 0.06 c0.18 0 0.26 -0.16 0.34 -0.26 l-0.04 -3.08 c0 -0.04 0.04 -0.1 0.04 -0.14 c0 0.02 -0.04 -0.28 -0.04 -0.36 c0 -0.02 -0.02 -0.4 0.04 -0.58 c0 -0.02 -0.04 -0.08 -0.04 -0.12 l0 -1.42 c0.04 -0.04 0.04 -0.1 0.04 -0.14 c0 -0.12 -0.04 -0.18 -0.04 -0.28 c0 0 -0.06 -4.8 -0.06 -6.36 l0.04 -0.08 l0 -0.94 c-0.14 -0.2 -0.6 -0.06 -0.66 -0.16 l-0.12 0.04 l0 0.02 c-0.04 0 -0.16 -0.06 -0.38 -0.06 c-0.04 0 -0.24 0.04 -0.28 0.08 c-0.32 0 -0.54 0.06 -0.54 -0.36 c0 -0.16 0.1 -0.38 0.76 -0.38 c0.08 0 0.26 0.04 0.38 0.04 c0.08 0 1.12 -0.04 1.14 -0.04 c0.14 0 0.38 0.06 0.46 0.06 c0.08 0.02 1.12 -0.08 1.6 -0.08 c0.06 0 0.04 0.18 0.18 0.18 c0 0 0.02 0 0.02 -0.02 s-0.02 -0.06 -0.02 -0.1 c0.22 0 0.44 -0.06 0.76 -0.12 c0.02 0.02 0.1 0.04 0.08 0.06 c0.02 0 0.06 -0.04 0.06 -0.08 c0.02 0 0.12 0.02 0.16 0.06 c0.1 -0.02 0.36 -0.08 0.38 -0.08 c0.78 0 0.82 0.36 0.82 0.56 c0 0.1 -0.14 0.3 -0.24 0.3 c-0.4 0 -1.16 -0.1 -1.34 -0.1 c-0.16 0 -0.24 0.26 -0.26 0.38 l0.02 6.7 c0 0.1 -0.02 0.38 -0.02 0.42 c0 0.02 0.02 -0.02 0.02 0.3 c0 0.7 -0.02 0.98 -0.02 1.36 c0 0.54 0.02 0.48 0.02 0.62 l0 2.32 c0 0.1 -0.06 1.68 0.24 1.74 c0.04 0 0.76 0.02 1.1 -0.02 l0.04 -0.04 l0.36 0 c0.22 0.1 0.26 0.3 0.26 0.38 c0 0.1 -0.16 0.34 -0.22 0.34 c-0.94 0 -2.38 0.06 -2.58 0.06 c0 0 -0.6 -0.04 -0.9 -0.04 c-0.88 0 -2 0.06 -2.64 0.06 c-0.52 0 -0.58 -0.16 -0.58 -0.36 z M39.620000000000005 19.92 c0 -0.02 -0.02 -0.02 -0.04 -0.02 s-0.04 0 -0.04 0.02 s0.02 0.04 0.04 0.04 s0.04 -0.02 0.04 -0.04 z M39.74 19.88 c0.08 0 0.12 0.04 0.2 0.04 c0.04 0 0.1 0 0.16 -0.04 c-0.14 0 -0.18 -0.14 -0.24 -0.16 c-0.02 0 -0.12 0 -0.12 0.12 l0 0.04 z M40.14 19.88 c-0.02 0 -0.04 0.02 -0.04 0.04 s0.02 0.04 0.04 0.04 c0 0 0.02 -0.02 0.02 -0.04 s-0.02 -0.04 -0.02 -0.04 z M40.64 19.84 l0.04 0.04 c0.1 0 0.12 0 0.16 -0.04 l-0.04 -0.02 c-0.18 0 -0.12 0 -0.16 0.02 z M44.940000000000005 19.68 c-0.12 0.04 -0.1 0.08 -0.1 0.2 c0.1 -0.04 0.08 -0.1 0.12 -0.2 l-0.02 0 z M45.620000000000005 19.68 c-0.14 0 -0.14 0.14 -0.16 0.2 l0.24 0 c0 -0.14 -0.04 -0.2 -0.08 -0.2 z M44.120000000000005 19.82 l-0.06 0.02 c0 0.02 0 0.02 0.02 0.02 z M44.36 19.84 l-0.04 -0.02 z M45.86 19.64 l0 0.12 c0.06 0.02 0.1 -0.08 0.1 -0.12 l-0.1 0 z M39.5 19.52 c-0.14 0 -0.14 0.14 -0.14 0.2 c0.08 -0.06 0.2 -0.04 0.22 -0.08 c0 -0.02 0.02 -0.12 -0.08 -0.12 z M41 19.66 l0.04 0.06 l0 -0.06 l-0.04 0 z M39.82 19.56 l0 0.04 l0.04 -0.04 l-0.04 0 z M45.42 19.52 c0 0.02 -0.02 0.02 -0.02 0.04 s0.02 0.02 0.06 0.04 l0.04 -0.04 l-0.04 -0.08 c-0.02 0 -0.04 0.02 -0.04 0.04 z M45.74 19.56 c0.02 0.04 0.06 0.04 0.1 0.04 c0 -0.02 -0.02 -0.06 -0.02 -0.1 z M41.42 19.3 c-0.02 0.02 -0.02 0.02 -0.02 0.04 s0.06 0.02 0.1 0.02 l0 -0.06 l-0.08 0 z M43.78 6.4 c-0.02 0 -0.04 0 -0.04 0.02 l0.04 0 l0.02 0 c0 -0.02 0 -0.02 -0.02 -0.02 z M44.800000000000004 5.32 c-0.02 0 -0.04 0.02 -0.04 0.04 s0.02 0.04 0.04 0.04 s0.02 -0.02 0.02 -0.04 s0 -0.04 -0.02 -0.04 z M39.300000000000004 5.140000000000001 c-0.02 0 -0.04 0.02 -0.04 0.04 c0 0 0.02 0.02 0.04 0.02 s0.02 -0.02 0.02 -0.02 c0 -0.02 0 -0.04 -0.02 -0.04 z M40.440000000000005 5.039999999999999 c-0.02 0 -0.04 0.02 -0.04 0.04 c0 0 0.02 0.02 0.04 0.02 l0 -0.06 z M40.720000000000006 5.039999999999999 c0 0.02 -0.02 0.02 -0.02 0.02 c0 0.02 0.02 0.02 0.06 0.04 l0 -0.06 l-0.04 0 z M39.46 5.02 c-0.08 0 -0.06 0.02 -0.06 0.06 c0.04 0 0.08 0 0.1 -0.04 z M46.660000000000004 19.72 l0 -0.1 l0.24 -0.24 l0.98 0 l0.08 0.04 l0.46 0.04 c0.08 0.04 0.18 -0.26 0.24 -0.26 l0 -2.42 c0 -0.02 -0.04 -0.26 -0.04 -0.28 c0 0 0.04 -0.48 0.04 -0.58 c0.04 -0.06 -0.06 0.08 -0.06 -0.32 c0 -0.04 0.06 -0.08 0.06 -0.16 c0 -0.14 -0.04 -0.22 -0.04 -0.32 c0 -0.04 0.04 -0.18 0.04 -0.26 l0 -1.26 c0 -0.18 -0.06 -0.5 -0.06 -0.74 l0.02 -1.72 c-0.02 -0.08 -0.02 -0.6 -0.02 -0.7 c0 -0.06 0.02 -0.52 0.02 -0.58 c0 -0.02 -0.02 -1.04 -0.02 -1.16 c0 -1.24 0.02 -1.46 0.02 -2 c0 -0.24 0 -0.76 -0.02 -0.92 l-0.12 -0.14 s-0.4 -0.02 -0.56 -0.02 c-0.26 0 -0.46 0.06 -0.7 0.06 c-0.22 -0.04 -0.44 0.12 -0.64 -0.34 c0 -0.18 0.04 -0.4 0.22 -0.44 c4.08 0 4.5 0.04 6.12 0.04 c3.88 0 3.66 -0.04 5.28 -0.04 c0.2 0 0.42 3.66 0.42 3.84 c0 0.02 0.02 0.02 0.02 0.04 c0 0.24 -0.36 0.42 -0.48 0.42 c-0.26 0 -0.4 -0.28 -0.48 -0.6 c0.08 0 -0.86 -1.54 -0.82 -1.46 c-0.26 -0.26 -0.28 -0.3 -0.44 -0.5 c0 -0.18 -0.86 -0.58 -0.96 -0.72 c0 0.02 -0.02 0.02 -0.02 0.02 c-0.06 0 -0.12 -0.24 -0.54 -0.24 c-0.56 0 -0.52 -0.08 -1.38 -0.08 l0 -0.04 l-0.62 0 l-0.04 0.04 l-0.26 0 l0.14 -0.04 c-0.46 0 -0.66 -0.06 -0.78 -0.06 c-0.18 0 -0.4 0.1 -0.4 0.68 c0 1.12 0.04 1.72 0.04 2 c0 0.3 -0.04 1.18 -0.04 1.3 c0 0.34 0.08 0.62 0.08 0.86 c-0.04 0 -0.08 0.14 -0.08 0.2 s0.08 0.44 0.08 0.62 c0 0.04 -0.04 0.1 -0.04 0.12 c0 0.06 -0.06 0.82 0.14 0.82 c0.46 0 0.8 -0.12 1.16 -0.12 l0 0.02 c0.06 0 0.24 -0.3 0.38 -0.3 c0.24 0 0.28 -0.08 0.54 -0.34 l0 0.02 c-0.02 0 0.34 -0.72 0.54 -0.96 c0.34 -0.16 -0.12 -1 0.88 -1 l0.06 0.04 c0 0.18 0.1 0.24 0.1 0.8 c-0.02 0.16 -0.04 0.68 -0.04 0.64 c0 0.22 0.04 0.56 0.04 0.84 c0 0.24 0 0.24 -0.04 0.36 c0 0.2 0.04 0.46 0.04 0.52 c0 0.26 -0.04 0.26 -0.04 0.46 c0 0.16 0.04 1.24 0.04 1.38 c0 0.08 -0.04 0.16 -0.04 0.28 l0 0.74 c0.02 0.02 -0.16 0.16 -0.26 0.16 c-0.64 0 -0.1 -0.12 -0.82 -1.42 c-0.56 -0.98 -0.74 -0.94 -1.06 -1.22 c0.02 0 -0.58 -0.2 -0.72 -0.2 l-0.06 -0.1 l-0.64 -0.02 c-0.3 0.16 -0.26 1 -0.26 0.68 c0 0.08 0.06 0.28 0.06 0.58 c0 0.14 -0.02 0.38 -0.06 0.6 c0 0.02 0.06 0.2 0.06 0.32 c0 0.2 -0.04 0.18 -0.04 0.26 c0 0.14 0.04 0.22 0.04 0.28 c-0.06 0.78 -0.08 2.18 -0.08 2.42 c0 1.26 -0.02 1.36 0.28 1.66 l0.86 0 c0.08 -0.02 0.18 -0.08 0.26 -0.08 c0.02 0 1.2 0.04 1.36 0.04 s0.02 -0.1 0.44 -0.1 c0.76 -0.3 0.72 -0.04 1.36 -0.54 c-0.02 0 -0.02 -0.02 -0.02 -0.02 c0 -0.06 0.5 -0.28 0.76 -0.6 c-0.02 0 -0.02 -0.02 -0.02 -0.02 c0 -0.3 0.88 -0.52 0.88 -1.24 c0 -0.08 0.36 -0.54 0.36 -0.66 c0.5 -1.26 0.18 -1.2 0.82 -1.2 c0.02 0 0.24 0 0.24 0.26 c0 1.3 -0.2 2.9 -0.2 3.8 c0 0.14 0.02 0.28 0.02 0.42 c0 0.24 -0.08 0.44 -0.56 0.44 l-7.7 0 c-1.16 0 -1.58 0.04 -3.72 0.04 c-0.38 -0.12 -0.28 -0.28 -0.28 -0.32 z M46.86000000000001 19.8 l0 -0.02 l0 0.06 c0 0.06 0.02 0.14 0.2 0.14 c0.04 0 0.1 0 0.16 -0.02 l0 -0.04 l-0.16 -0.18 c-0.02 0.04 -0.04 0.08 -0.08 0.1 c-0.02 0 -0.08 -0.02 -0.12 -0.06 l0 0.02 z M53.96 19.88 l0.02 0.04 c0.02 -0.02 0.02 -0.02 0.02 -0.08 z M53.18000000000001 19.84 c-0.06 0 -0.08 0 -0.1 0.04 l0.1 0 l0 -0.04 z M47.56 19.62 c0.04 0 0.12 0.04 0.14 0.04 c0.18 0 0.12 0 0.18 -0.04 c-0.04 0 -0.18 -0.04 -0.2 -0.04 c-0.08 0 -0.08 0 -0.12 0.04 z M58.540000000000006 19.62 c0.02 0.06 0.08 0.04 0.12 0.04 c-0.02 -0.04 -0.06 -0.04 -0.12 -0.04 z M49.1 19.62 c0 -0.02 -0.02 -0.02 -0.04 -0.02 s-0.04 0 -0.04 0.02 s0.02 0.04 0.04 0.04 s0.04 -0.02 0.04 -0.04 z M46.980000000000004 19.56 l0 0.02 l0.2 0 c-0.04 -0.02 -0.16 -0.02 -0.2 -0.02 z M48.82 16.9 l-0.02 -0.02 c-0.02 0 -0.02 0.02 -0.02 0.02 c0 0.02 0 0.04 0.02 0.04 c0 0 0.02 -0.02 0.02 -0.04 z M48.78 16.04 l0 0.08 c0.02 0 0.02 -0.02 0.02 -0.04 s0 -0.04 -0.02 -0.04 z M48.82 15.92 c0.02 0.04 0.06 0.04 0.12 0.04 c0 -0.04 0.02 -0.16 -0.04 -0.2 c0 0.04 -0.08 0.1 -0.08 0.16 z M48.940000000000005 15.54 c0 0.02 0 0.04 0.02 0.06 l0.02 -0.06 l-0.04 0 z M58.940000000000005 15.54 c-0.02 0 -0.04 0.02 -0.04 0.04 c0 0 0.02 0.02 0.04 0.02 s0.02 -0.02 0.02 -0.02 c0 -0.02 0 -0.04 -0.02 -0.04 z M59.040000000000006 15.5 c-0.02 0 -0.02 0.02 -0.02 0.04 c0 0 0 0.02 0.02 0.02 l0 -0.06 z M48.82 12.48 c-0.02 0 -0.04 0.02 -0.04 0.04 c0 0 0.02 0.02 0.04 0.02 s0.02 -0.02 0.02 -0.02 c0 -0.02 0 -0.04 -0.02 -0.04 z M48.96 12.48 c0 -0.02 0 -0.02 -0.02 -0.02 l0 0.04 c0.02 0 0.02 0 0.02 -0.02 z M48.82 11.6 l-0.02 -0.02 c-0.02 0 -0.02 0.02 -0.02 0.02 c0 0.02 0 0.04 0.02 0.04 c0 0 0.02 -0.02 0.02 -0.04 z M55.2 9.92 c0 -0.02 -0.02 -0.02 -0.04 -0.02 c0 0 -0.02 0 -0.02 0.02 s0.02 0.04 0.02 0.04 c0.02 0 0.04 -0.02 0.04 -0.04 z M58.040000000000006 8.96 c-0.02 0 -0.04 0.02 -0.04 0.04 c0 0 0.02 0.02 0.04 0.02 s0.02 -0.02 0.02 -0.02 c0 -0.02 0 -0.04 -0.02 -0.04 z M51.080000000000005 7.960000000000001 c-0.02 0.02 -0.02 0.06 -0.02 0.08 l0.22 0 c-0.02 -0.04 -0.1 -0.08 -0.2 -0.08 z M48.78 7.18 l0 0.08 c0.02 0 0.02 -0.02 0.02 -0.04 s0 -0.04 -0.02 -0.04 z M48.78 6.16 l0 0.08 c0.02 0 0.02 -0.02 0.02 -0.04 s0 -0.04 -0.02 -0.04 z M58.24 5.42 l0 0.2 l0.02 -0.1 c0 -0.04 0 -0.06 -0.02 -0.1 z M48.080000000000005 5.539999999999999 c-0.02 0 -0.02 0.02 -0.02 0.04 s0 0.04 0.02 0.04 s0.02 -0.02 0.02 -0.04 s0 -0.04 -0.02 -0.04 z M49.760000000000005 5.58 c0 -0.02 -0.02 -0.02 -0.02 -0.02 c-0.02 0 -0.02 0 -0.02 0.02 s0 0.04 0.02 0.04 c0 0 0.02 -0.02 0.02 -0.04 z M47.52 5.380000000000001 c-0.18 0 -0.08 0.14 -0.14 0.16 c0.12 0 0.14 -0.02 0.14 -0.06 c0 -0.02 -0.02 -0.04 -0.02 -0.06 s0.02 -0.02 0.02 -0.04 z M48 5.48 l0.06 0.04 l0.02 -0.04 l-0.04 -0.02 z M47.120000000000005 5.42 c-0.02 0 -0.02 0.02 -0.02 0.04 c0 0 0 0.02 0.02 0.02 s0.02 -0.02 0.02 -0.02 c0 -0.02 0 -0.04 -0.02 -0.04 z M47.32 5.34 l-0.14 0.04 l0.14 0 l0 -0.04 z M49.1 5.34 c-0.02 0 -0.04 0.02 -0.04 0.02 c0 0.02 0.02 0.02 0.04 0.02 c0 0 0.02 0 0.02 -0.02 z M51.120000000000005 5.34 l0 0.04 l0.02 0 z M47.42 5.34 l-0.04 0 c0 0.02 0 0.04 0.02 0.04 c0 0 0.02 -0.02 0.02 -0.04 z M47.88 5.32 c-0.04 0 -0.04 0.04 -0.04 0.04 c0.02 0 0.02 -0.02 0.04 -0.04 z M48.74 5.34 l-0.04 0 c0 0.02 0 0.04 0.02 0.04 c0 0 0.02 -0.02 0.02 -0.04 z M52 5.32 c-0.04 0 -0.08 0.02 -0.12 0.02 l0.14 0 z M46.82 5.32 c0 0 0 -0.02 -0.02 -0.02 l0 0.04 c0.02 0 0.02 0 0.02 -0.02 z M52.86 5.26 c0 0.08 0.02 0.04 0.04 0.06 c0 0 0.02 0 0.04 -0.02 l-0.04 -0.08 z M58.160000000000004 5.0600000000000005 l0 0.24 l0.04 0 c0 -0.06 0.02 -0.24 -0.04 -0.24 z M47.64 5.1 c-0.02 0 -0.04 0.02 -0.04 0.02 c0 0.02 0.02 0.02 0.04 0.02 s0.02 0 0.02 -0.02 c0 0 0 -0.02 -0.02 -0.02 z M46.980000000000004 5.1 l-0.02 -0.04 z M47.220000000000006 5.02 c-0.04 0.02 -0.06 0.04 -0.06 0.06 l0.02 0.02 l0.04 0 l0 -0.08 z M61.900000000000006 19.42 c-0.18 0 -0.28 0.04 -0.4 0.06 c-0.18 0 -0.14 0 -0.16 -0.02 l-0.06 0.02 c0 0.06 0.02 0.06 0.06 0.08 c0 -0.02 -0.06 0.04 -0.1 0.12 l0.02 0 c0 0.02 -0.64 0.52 -0.74 0.52 c-0.46 0 -0.46 -0.54 -0.46 -0.62 c0 -0.04 0 -0.04 0.02 -0.1 c0 -2.24 -0.1 -1.9 -0.1 -3.24 c0 0 0.02 -0.02 0.02 -0.04 c0 -0.06 -0.04 -0.16 -0.04 -0.26 c0 -0.18 0.08 -0.3 0.6 -0.3 c0.06 0 0.14 0.06 0.32 0.38 c0 0.1 0.36 0.4 0.4 0.58 c-0.02 0.02 -0.04 0.04 -0.04 0.06 c0 0.08 0.3 0.2 0.3 0.32 c0 0.02 -0.02 0.04 -0.02 0.04 c0 0.12 0.2 0.22 0.2 0.28 c0.24 0.44 0.26 0.42 0.58 0.74 c0.1 0 0.84 1.32 1.4 1.32 c0.72 0.06 0.86 0.32 1.62 0.32 c0.42 0 0.36 -0.02 0.5 -0.1 c-0.04 0.04 -0.02 0.04 -0.04 0.04 c0 0 0.14 -0.2 0.8 -0.2 c0.3 0 0.88 -0.56 1 -0.64 c0.04 -0.04 0.24 -0.12 0.24 -0.16 c0 -0.12 0.42 -0.7 0.48 -0.76 c-0.02 -0.04 -0.02 -0.08 -0.02 -0.1 c0 -0.3 0.32 0.16 0.32 -1.7 c-0.02 -0.06 -0.08 -0.7 -0.22 -0.82 c-0.06 0 -0.06 -0.46 -0.54 -0.78 c0 -0.02 0.02 -0.12 0.02 -0.16 c-0.78 -0.04 -0.38 -0.44 -0.9 -0.44 c-0.98 0 -0.2 -0.3 -1.26 -0.3 c-0.1 -0.1 -0.98 -0.08 -1.18 -0.2 c-0.04 0 -0.18 0.04 -0.22 0.04 c-0.24 0 -0.04 -0.2 -0.58 -0.2 c-1.82 -0.1 -0.84 -0.44 -1.46 -0.44 l0 -0.04 c0.06 0 0.14 -0.02 0.2 0.04 c0 0 0.1 -0.04 0.1 -0.06 c0 0 -0.04 -0.04 -0.04 -0.06 l-0.62 0 c-0.2 -0.18 -0.18 -0.3 -0.34 -0.34 c0 -0.02 -0.22 0.02 -0.56 -0.44 c0 -0.14 -0.44 -0.66 -0.54 -0.74 c-0.18 -0.94 -0.4 -1.5 -0.4 -2.22 c0.04 -0.22 0 -0.5 0.08 -0.64 l0 0.02 c0.02 0 0.1 -0.68 0.16 -0.64 c-0.02 0 -0.04 -0.02 -0.04 -0.04 c0 -0.16 0.42 -0.6 0.42 -0.76 c-0.02 -0.02 -0.02 -0.04 -0.02 -0.04 c0 -0.14 0.32 -0.28 0.32 -0.34 s0.26 -0.48 0.38 -0.56 c-0.02 0.02 -0.02 0.04 -0.02 0.04 c-0.02 0 0.98 -0.66 1 -0.68 c1.22 -0.2 0.16 -0.54 1.52 -0.54 l1.96 0 c0.04 0 0.46 0 0.66 0.16 c0.82 0.04 0.68 0.52 1.04 0.52 c0.66 0 0.48 -0.04 0.68 -0.24 c-0.08 -0.1 0.54 -0.02 0.6 -0.28 l0.26 0 c0.04 0 0.2 0.16 0.22 0.2 c0.06 2.48 0.18 2.42 0.18 3.72 c0 0.1 -0.18 0.16 -0.26 0.32 l-0.28 0 l0 -0.08 c-0.06 0 -0.48 -0.28 -0.48 -0.5 l0 0.02 c-0.02 0 -0.16 -0.5 -0.38 -0.58 l0.02 0 c0 -0.06 -0.26 -0.26 -0.26 -0.4 c-0.3 -0.44 -0.26 -0.42 -0.5 -0.66 l0.02 0 c0 -0.02 -0.5 -0.32 -0.5 -0.46 c0 -0.3 -0.74 -0.66 -0.9 -0.82 c0.06 -0.12 -0.52 -0.28 -1.1 -0.28 c-0.02 0 -0.04 0.02 -0.06 0.02 c-0.2 0 -0.12 -0.34 -0.18 -0.34 c-0.04 0.04 -0.06 0.04 -0.08 0.08 c-0.02 0 -0.1 -0.02 -0.16 -0.04 c-0.12 0.44 -0.32 0.2 -0.38 0.32 c-0.12 -0.06 -0.04 -0.12 -0.12 -0.14 c-0.42 0.2 -0.3 0.18 -1.22 0.64 c-0.6 1.18 -0.28 -0.28 -0.94 1.52 l0 0.88 l0 -0.02 c0.02 0 0.1 0.78 0.28 0.88 c0.04 0.06 0.3 0.26 0.38 0.42 c0.14 0 0.32 0.52 0.9 0.52 c0.24 0.26 1.18 0.2 2.14 0.44 c0.28 0.08 1.74 0.08 2.08 0.48 l-0.02 0 c0 0.04 0.48 0.08 0.56 0.14 c0 -0.04 0.96 0.56 0.96 0.68 c0 0.02 0 0.02 -0.02 0.02 c0.34 0 0.68 0.76 0.82 0.86 c0.1 0.72 0.38 0.5 0.38 1.06 c0.24 0.76 0.2 0.94 0.2 1.88 c-0.06 0.06 -0.1 0.76 -0.2 0.8 c0 1.02 -0.52 0.96 -0.52 1.4 l-0.26 0.24 c0 0.04 -0.02 0.12 -0.02 0.12 c-0.4 0.36 -0.26 0.42 -0.44 0.5 c-0.06 0 -0.16 0.3 -0.5 0.4 c-0.38 0.58 -0.54 0.12 -0.94 0.7 c-1.8 0 0.04 0.44 -1.96 0.44 c-2.28 0 -1.48 -0.06 -2.22 -0.24 c-0.02 0 -0.02 0.02 -0.04 0.02 c-0.12 0 -0.3 -0.16 -0.46 -0.16 c0 -0.02 -0.3 -0.06 -0.3 -0.1 c0 0.02 0.02 0.02 0.02 0.02 c0 -0.02 -0.28 -0.42 -0.5 -0.42 c-0.04 0 -0.08 0.02 -0.12 0.04 z M65.7 20.14 c-0.02 0 -0.02 0.02 -0.02 0.04 c0 0 0 0.02 0.02 0.02 s0.02 -0.02 0.02 -0.02 c0 -0.02 0 -0.04 -0.02 -0.04 z M64.2 20.1 c-0.02 0 -0.02 0.02 -0.02 0.02 c0 0.02 0 0.02 0.02 0.02 s0.02 0 0.02 -0.02 c0 0 0 -0.02 -0.02 -0.02 z M66.10000000000001 20.1 c-0.02 0 -0.04 0.02 -0.04 0.04 s0.02 0.04 0.04 0.04 s0.02 -0.02 0.02 -0.04 s0 -0.04 -0.02 -0.04 z M65.66000000000001 20.06 c-0.02 0 -0.04 0.02 -0.04 0.04 s0.02 0.04 0.04 0.04 s0.02 -0.02 0.02 -0.04 s0 -0.04 -0.02 -0.04 z M66.10000000000001 20.02 c-0.04 0 -0.06 0 -0.06 0.02 l0.02 0.02 l0.04 0 l0 -0.04 z M64.64000000000001 20.02 c-0.02 0 -0.02 0 -0.02 0.02 c0 0 0 0.02 0.02 0.02 s0.02 -0.02 0.02 -0.02 c0 -0.02 0 -0.02 -0.02 -0.02 z M66.10000000000001 19.88 l0 0.1 c0.04 -0.02 0.08 -0.06 0.1 -0.1 l-0.1 0 z M66.64000000000001 19.82 c-0.18 0 -0.18 0.06 -0.18 0.12 c0.02 0 0.06 -0.02 0.1 -0.04 c0.02 0 0.08 0.02 0.12 0.04 l0.08 -0.04 s0 -0.08 -0.12 -0.08 z M64.26 19.84 l0 0.04 l0.08 0 l0 -0.04 l-0.08 0 z M65.26 19.84 c-0.02 0 -0.02 0.02 -0.02 0.04 c0 0 0 0.02 0.02 0.02 s0.02 -0.02 0.02 -0.02 c0 -0.02 0 -0.04 -0.02 -0.04 z M65.82000000000001 19.84 c-0.02 0 -0.04 0.02 -0.04 0.04 c0 0 0.02 0.02 0.04 0.02 s0.02 -0.02 0.02 -0.02 c0 -0.02 0 -0.04 -0.02 -0.04 z M63.980000000000004 19.72 c-0.02 0 -0.04 0 -0.04 0.02 l0.04 0 l0.02 0 c0 -0.02 0 -0.02 -0.02 -0.02 z M63.36000000000001 19.66 c-0.02 0 -0.04 0 -0.06 0.02 z M63.30000000000001 19.58 c-0.02 0 -0.04 0.02 -0.04 0.04 s0.02 0.04 0.04 0.04 s0.02 -0.02 0.02 -0.04 s0 -0.04 -0.02 -0.04 z M63.36000000000001 19.56 c-0.02 0 -0.02 0.02 -0.02 0.04 c0 0 0 0.02 0.02 0.02 s0.02 -0.02 0.02 -0.02 c0 -0.02 0 -0.04 -0.02 -0.04 z M60.50000000000001 19.52 c-0.02 0 -0.04 0.02 -0.04 0.04 c0 0 0.02 0.02 0.04 0.02 l0.02 -0.02 c0 -0.02 -0.02 -0.04 -0.02 -0.04 z M63.30000000000001 19.52 c-0.02 0 -0.04 0.02 -0.04 0.04 c0 0 0.02 0.02 0.04 0.02 s0.02 -0.02 0.02 -0.02 c0 -0.02 0 -0.04 -0.02 -0.04 z M60.220000000000006 19.46 c-0.02 0 -0.04 0.02 -0.04 0.02 c0 0.02 0.02 0.04 0.04 0.04 c0 0 0.02 -0.02 0.02 -0.04 z M63.46000000000001 19.48 l-0.04 0 c0 0.02 0 0.04 0.02 0.04 c0 0 0.02 -0.02 0.02 -0.04 z M67.38000000000001 19.46 c-0.02 0 -0.02 0.02 -0.02 0.02 l0.04 0 c0 0.02 0 -0.02 -0.02 -0.02 z M60.220000000000006 19.12 l0 -0.08 l0 0.08 z M68.30000000000001 19.08 c-0.02 0 -0.04 0.02 -0.04 0.04 l0.06 0 c0 -0.02 -0.02 -0.04 -0.02 -0.04 z M68.58000000000001 18.84 l0 0.04 l0.02 0 z M68.52000000000001 18.78 c-0.02 0 -0.04 0.02 -0.04 0.04 c0 0 0.02 0.02 0.04 0.02 s0.02 -0.02 0.02 -0.02 c0 -0.02 0 -0.04 -0.02 -0.04 z M68.64000000000001 18.8 l0.04 -0.02 z M68.76 18.68 l0 0 l-0.04 0.04 c0.02 -0.02 0.02 -0.04 0.04 -0.04 z M60.28000000000001 18.66 c-0.02 0 -0.04 0 -0.04 0.02 c0 0 0.04 0 0.04 -0.02 l0 0 z M60.220000000000006 18.46 l0 0.12 l0.02 0 c0 -0.02 0 -0.1 -0.02 -0.12 z M69.38000000000001 18.02 c-0.02 0 -0.02 0.02 -0.02 0.02 s0 0.02 0.02 0.02 s0.02 -0.02 0.02 -0.02 s0 -0.02 -0.02 -0.02 z M68.76 16.38 l0.04 0.02 l0.04 -0.02 l-0.08 0 z M60.220000000000006 16.06 l-0.04 0 c0 0.02 0 0.04 0.02 0.04 c0 0 0.02 -0.02 0.02 -0.04 z M70.18 15.719999999999999 l0 -0.02 c-0.02 0 -0.02 0 -0.02 0.02 s0 0.04 0.02 0.04 l0 -0.04 z M61.78000000000001 12.34 c-0.02 0 -0.04 0.02 -0.04 0.04 s0.02 0.04 0.04 0.04 s0.02 -0.02 0.02 -0.04 s0 -0.04 -0.02 -0.04 z M60.96000000000001 11.48 c-0.02 0 -0.04 0.02 -0.04 0.04 c0 0 0.02 0.02 0.04 0.02 l0.02 -0.02 c0 -0.02 -0.02 -0.04 -0.02 -0.04 z M67.38000000000001 11.28 c-0.02 0 -0.02 0.02 -0.02 0.04 c0 0 0 0.02 0.02 0.02 s0.02 -0.02 0.02 -0.02 c0 -0.02 0 -0.04 -0.02 -0.04 z M60.720000000000006 11.2 l0 0.04 l0.04 -0.04 l-0.04 0 z M62.620000000000005 11.02 c0 0 -0.02 0 -0.02 0.02 l0.04 0 c0 -0.02 -0.02 -0.02 -0.02 -0.02 z M64.60000000000001 10.76 c-0.04 0 -0.14 0.04 -0.14 0.06 s0.02 0.02 0.02 0.02 c0.04 0 0.08 -0.04 0.12 -0.08 z M60.34000000000001 10.18 c-0.02 0 -0.04 -0.02 -0.04 0.1 c0 0.02 0.02 0.06 0.02 0.06 c0.02 0 0.04 -0.04 0.04 -0.06 c0 -0.04 -0.02 -0.08 -0.02 -0.1 z M60.28000000000001 9.98 c-0.02 0 -0.04 0.02 -0.04 0.04 s0.02 0.04 0.04 0.04 l0 -0.08 z M68.84 6.460000000000001 c-0.02 0 -0.04 0.02 -0.04 0.04 c0 0 0.02 0.02 0.04 0.02 s0.02 -0.02 0.02 -0.02 c0 -0.02 0 -0.04 -0.02 -0.04 z M69.12 6.460000000000001 c-0.02 0 -0.02 0.02 -0.02 0.04 c0 0 0 0.02 0.02 0.02 s0.02 -0.02 0.02 -0.02 c0 -0.02 0 -0.04 -0.02 -0.04 z M69.2 6.460000000000001 c-0.02 0 -0.04 0.02 -0.04 0.04 c0 0 0.02 0.02 0.04 0.02 l0.02 -0.02 c0 -0.02 -0.02 -0.04 -0.02 -0.04 z M64.72000000000001 6.02 l0 -0.22 c0.02 -0.02 0.06 -0.04 0.08 -0.06 l0.04 0.04 c0 0.06 -0.08 0.16 -0.08 0.28 z M69.12 5.9399999999999995 c-0.02 0 -0.02 0.02 -0.02 0.04 c0 0 0 0.02 0.02 0.02 s0.02 -0.02 0.02 -0.02 c0 -0.02 0 -0.04 -0.02 -0.04 z M62.56000000000001 5.84 c-0.1 0.02 -0.1 0.1 -0.1 0.1 c0.02 -0.02 0.1 -0.06 0.1 -0.08 l0 -0.02 z M62.080000000000005 5.74 c0 0.04 0.06 0.06 0.1 0.06 c-0.02 -0.06 -0.1 -0.06 -0.12 -0.06 l0.02 0 z M69.04 5.779999999999999 c0.02 0.02 0.04 0.02 0.06 0.02 c0.08 0 0.1 -0.06 0.1 -0.12 z M62.400000000000006 5.619999999999999 c-0.06 0 -0.04 0.06 -0.04 0.12 l0.04 0 l0 -0.12 z M66.36000000000001 5.4399999999999995 c-0.06 0.1 -0.04 0.18 -0.04 0.26 c0.08 -0.02 0.1 -0.12 0.1 -0.22 c-0.02 -0.02 -0.02 -0.04 -0.06 -0.04 z M62.400000000000006 5.52 c-0.02 0 -0.04 0 -0.04 0.02 l0.04 0 l0.02 0 c0 -0.02 0 -0.02 -0.02 -0.02 z M68.84 5.48 c0 -0.02 -0.02 -0.02 -0.06 -0.02 c-0.02 0 -0.04 0 -0.04 0.02 s0.02 0.04 0.04 0.04 c0.04 0 0.06 -0.02 0.06 -0.04 z M68.92000000000002 5.42 c-0.02 0 -0.04 0.02 -0.04 0.02 l0.02 0 l0.02 0 l0 -0.02 z M66.94000000000001 5.42 l-0.02 -0.02 z M65.7 5.4 c0 -0.02 -0.02 -0.02 -0.02 -0.02 s-0.02 0 -0.02 0.02 s0.02 0.02 0.02 0.02 s0.02 0 0.02 -0.02 z M68.42000000000002 5.4 c0 -0.02 -0.02 -0.02 -0.02 -0.02 c-0.02 0 -0.02 0 -0.02 0.02 s0 0.02 0.02 0.02 c0 0 0.02 0 0.02 -0.02 z M68.68 5.359999999999999 c-0.02 0 -0.04 0.02 -0.04 0.04 c0 0 0.02 0.02 0.04 0.02 s0.02 -0.02 0.02 -0.02 c0 -0.02 0 -0.04 -0.02 -0.04 z M69.12 5.32 l0 0.08 l0.04 -0.04 z M63.040000000000006 5.16 c0 0.06 0.04 0.14 0.04 0.2 l0.04 -0.1 s-0.02 -0.08 -0.04 -0.14 z M66.56 5.24 c-0.02 0 -0.04 0.02 -0.04 0.02 s0.02 0.02 0.04 0.02 s0.02 -0.02 0.02 -0.02 s0 -0.02 -0.02 -0.02 z M68.74000000000001 5.119999999999999 c-0.06 0.02 -0.08 0.08 -0.1 0.14 c0.12 0 0.1 -0.06 0.1 -0.14 z M69.12 5.24 l0 0.02 l0.04 0 z M69.12 5.119999999999999 c-0.02 0 -0.02 0.02 -0.02 0.02 c0 0.02 0 0.02 0.02 0.02 s0.02 0 0.02 -0.02 c0 0 0 -0.02 -0.02 -0.02 z M64.94000000000001 5.039999999999999 c-0.02 0.06 0.1 0.08 0.1 0.08 c0.04 -0.06 0.24 0.02 0.22 -0.08 l-0.32 0 z M66.2 5.08 l-0.04 0 c0 0.02 0 0.04 0.02 0.04 c0 0 0.02 -0.02 0.02 -0.04 z M63.82000000000001 5 l0 0.04 l0.08 0 l0 -0.04 l-0.08 0 z M64.2 4.960000000000001 c-0.06 0 -0.14 0.06 -0.16 0.08 l0.16 0 l0 -0.08 z M65.7 5 l0 0.04 l0.12 0 z"/></g>
			</g>
		</svg>
	